<svg width="34" height="34" viewBox="0 0 34 34" fill="none" xmlns="http://www.w3.org/2000/svg">
<circle cx="17" cy="17" r="17" fill="black"/>
<path d="M23.6111 20.6361L22.95 19.6444C21.8922 18.0578 21.3633 16.1405 21.3633 14.2233C21.3633 12.1739 20.0411 10.455 18.2561 9.92609C18.0578 9.39721 17.5289 9.06665 17 9.06665C16.4711 9.06665 15.9422 9.39721 15.7439 9.92609C13.9589 10.455 12.6367 12.1739 12.6367 14.2233C12.6367 16.1405 12.1078 18.0578 11.05 19.6444L10.3889 20.6361C10.1245 21.0989 10.3889 21.6278 10.9178 21.6278H23.0161C23.545 21.6278 23.8756 21.0328 23.6111 20.6361Z" stroke="white" stroke-width="1.2" stroke-miterlimit="10" stroke-linejoin="round"/>
<path d="M18.9823 23.6111C18.9823 24.735 18.1228 25.5944 16.999 25.5944C15.8751 25.5944 15.0156 24.735 15.0156 23.6111" stroke="white" stroke-width="1.2" stroke-miterlimit="10" stroke-linejoin="round"/>
</svg>
