<svg width="149" height="142" viewBox="0 0 149 142" fill="none" xmlns="http://www.w3.org/2000/svg">
<path d="M145.786 69.8515L78.2082 2.32335C77.7216 1.83583 77.1437 1.44904 76.5075 1.18514C75.8712 0.921239 75.1892 0.7854 74.5004 0.7854C73.8116 0.7854 73.1296 0.921239 72.4933 1.18514C71.8571 1.44904 71.2792 1.83583 70.7926 2.32335L3.21523 69.8515C1.24648 71.8202 0.130859 74.4945 0.130859 77.2835C0.130859 83.0749 4.83945 87.7835 10.6309 87.7835H17.7512V135.969C17.7512 138.873 20.0973 141.219 23.0012 141.219H64.0004V104.469H82.3754V141.219H126C128.904 141.219 131.25 138.873 131.25 135.969V87.7835H138.37C141.159 87.7835 143.833 86.6843 145.802 84.6991C149.887 80.5976 149.887 73.953 145.786 69.8515Z" fill="black"/>
</svg>
