<svg width="550" height="406" viewBox="0 0 550 406" fill="none" xmlns="http://www.w3.org/2000/svg">
<path d="M494.889 377.839H458.457V378.114H494.889V377.839Z" fill="#EBEBEB"/>
<path d="M364.342 380.831H354.783V381.106H364.342V380.831Z" fill="#EBEBEB"/>
<path d="M457.359 367.631H436.25V367.906H457.359V367.631Z" fill="#EBEBEB"/>
<path d="M105.214 369.479H57.7051V369.754H105.214V369.479Z" fill="#EBEBEB"/>
<path d="M121.981 369.479H115.018V369.754H121.981V369.479Z" fill="#EBEBEB"/>
<path d="M247.665 374.121H144.617V374.396H247.665V374.121Z" fill="#EBEBEB"/>
<path d="M262.238 311.08H49.8279C48.162 311.08 46.5645 310.418 45.3865 309.24C44.2086 308.062 43.5469 306.465 43.5469 304.799V6.226C43.5614 4.56972 44.2295 2.98622 45.4059 1.82018C46.5822 0.654129 48.1715 -6.34985e-05 49.8279 4.6228e-09H262.238C263.063 4.62281e-09 263.879 0.162461 264.642 0.478111C265.404 0.793761 266.096 1.25642 266.679 1.83966C267.262 2.42291 267.725 3.11532 268.041 3.87737C268.356 4.63941 268.519 5.45617 268.519 6.281V304.799C268.519 305.624 268.356 306.441 268.041 307.203C267.725 307.965 267.262 308.657 266.679 309.24C266.096 309.824 265.404 310.286 264.642 310.602C263.879 310.918 263.063 311.08 262.238 311.08ZM49.8279 0.220001C48.2359 0.222909 46.7099 0.856614 45.5842 1.98233C44.4585 3.10804 43.8248 4.634 43.8219 6.226V304.799C43.8248 306.391 44.4585 307.917 45.5842 309.043C46.7099 310.168 48.2359 310.802 49.8279 310.805H262.238C263.83 310.802 265.356 310.168 266.482 309.043C267.607 307.917 268.241 306.391 268.244 304.799V6.226C268.241 4.634 267.607 3.10804 266.482 1.98233C265.356 0.856614 263.83 0.222909 262.238 0.220001H49.8279Z" fill="#EBEBEB"/>
<path d="M500.168 311.08H287.758C286.092 311.08 284.494 310.418 283.316 309.24C282.138 308.062 281.477 306.465 281.477 304.799V6.226C281.491 4.56972 282.159 2.98622 283.336 1.82018C284.512 0.654129 286.101 -6.34985e-05 287.758 4.6228e-09H500.168C501.833 4.62282e-09 503.431 0.661747 504.609 1.83966C505.787 3.01758 506.449 4.61517 506.449 6.281V304.799C506.449 306.465 505.787 308.062 504.609 309.24C503.431 310.418 501.833 311.08 500.168 311.08ZM287.758 0.220001C286.166 0.222909 284.64 0.856614 283.514 1.98233C282.388 3.10804 281.754 4.634 281.752 6.226V304.799C281.754 306.391 282.388 307.917 283.514 309.043C284.64 310.168 286.166 310.802 287.758 310.805H500.168C501.76 310.802 503.286 310.168 504.411 309.043C505.537 307.917 506.171 306.391 506.174 304.799V6.226C506.171 4.634 505.537 3.10804 504.411 1.98233C503.286 0.856614 501.76 0.222909 500.168 0.220001H287.758Z" fill="#EBEBEB"/>
<path d="M550 360.14H0V360.415H550V360.14Z" fill="#EBEBEB"/>
<path d="M148.835 137.038C139.786 137.038 130.941 134.354 123.417 129.327C115.893 124.299 110.03 117.154 106.567 108.793C103.105 100.433 102.2 91.2341 103.966 82.3593C105.732 73.4846 110.09 65.3329 116.489 58.9353C122.889 52.5376 131.041 48.1813 139.917 46.4173C148.792 44.6533 157.991 45.5608 166.35 49.0252C174.709 52.4895 181.854 58.355 186.879 65.8798C191.905 73.4046 194.586 82.2508 194.584 91.2996C194.566 103.427 189.741 115.052 181.164 123.626C172.588 132.2 160.962 137.023 148.835 137.038ZM148.835 54.3506C141.527 54.3506 134.383 56.5176 128.307 60.5776C122.231 64.6376 117.495 70.4083 114.699 77.1598C111.902 83.9113 111.17 91.3406 112.596 98.508C114.022 105.675 117.541 112.259 122.708 117.426C127.875 122.594 134.459 126.113 141.627 127.539C148.794 128.964 156.223 128.233 162.975 125.436C169.726 122.639 175.497 117.904 179.557 111.827C183.617 105.751 185.784 98.6074 185.784 91.2996C185.772 81.5037 181.876 72.1123 174.949 65.1855C168.022 58.2588 158.631 54.3622 148.835 54.3506Z" fill="#EBEBEB"/>
<path d="M148.831 120.274C143.098 120.274 137.493 118.574 132.726 115.388C127.96 112.203 124.244 107.675 122.051 102.378C119.858 97.0813 119.284 91.2528 120.403 85.63C121.523 80.0071 124.284 74.8425 128.339 70.7893C132.394 66.7362 137.559 63.9765 143.183 62.8593C148.806 61.7422 154.634 62.3177 159.93 64.5132C165.227 66.7087 169.753 70.4255 172.936 75.1935C176.12 79.9615 177.818 85.5666 177.816 91.2997C177.804 98.9824 174.746 106.347 169.313 111.778C163.879 117.21 156.513 120.265 148.831 120.274ZM148.831 71.1147C144.839 71.1147 140.936 72.2986 137.617 74.5165C134.297 76.7345 131.71 79.8869 130.182 83.5753C128.654 87.2636 128.255 91.3221 129.034 95.2376C129.812 99.1531 131.735 102.75 134.558 105.573C137.381 108.396 140.977 110.318 144.893 111.097C148.808 111.876 152.867 111.476 156.555 109.948C160.243 108.42 163.396 105.833 165.614 102.514C167.832 99.1945 169.016 95.2919 169.016 91.2997C169.013 85.9472 166.885 80.8148 163.1 77.03C159.316 73.2452 154.183 71.1176 148.831 71.1147Z" fill="#EBEBEB"/>
<path d="M148.831 102.729C155.149 102.729 160.271 97.607 160.271 91.2889C160.271 84.9707 155.149 79.8489 148.831 79.8489C142.512 79.8489 137.391 84.9707 137.391 91.2889C137.391 97.607 142.512 102.729 148.831 102.729Z" fill="#EBEBEB"/>
<path d="M436.983 330.825C427.937 330.822 419.095 328.138 411.575 323.111C404.055 318.084 398.194 310.94 394.734 302.582C391.274 294.224 390.37 285.028 392.136 276.157C393.902 267.285 398.259 259.137 404.656 252.741C411.053 246.346 419.203 241.991 428.075 240.227C436.947 238.463 446.143 239.369 454.5 242.831C462.856 246.293 469.999 252.156 475.024 259.677C480.05 267.198 482.732 276.041 482.732 285.087C482.717 297.215 477.892 308.841 469.316 317.416C460.739 325.991 449.111 330.813 436.983 330.825ZM436.983 248.149C429.678 248.151 422.537 250.319 416.464 254.379C410.391 258.439 405.659 264.209 402.864 270.959C400.07 277.708 399.34 285.135 400.767 292.3C402.193 299.464 405.712 306.045 410.879 311.21C416.045 316.374 422.627 319.891 429.792 321.316C436.957 322.74 444.383 322.008 451.132 319.212C457.881 316.416 463.649 311.681 467.707 305.607C471.766 299.533 473.932 292.392 473.932 285.087C473.92 275.292 470.023 265.902 463.096 258.977C456.169 252.052 446.778 248.157 436.983 248.149Z" fill="#F0F0F0"/>
<path d="M436.985 314.061C431.254 314.059 425.654 312.357 420.89 309.172C416.127 305.987 412.415 301.462 410.224 296.167C408.033 290.873 407.46 285.047 408.58 279.428C409.699 273.808 412.459 268.646 416.512 264.595C420.564 260.544 425.727 257.786 431.347 256.669C436.967 255.552 442.792 256.126 448.086 258.319C453.38 260.513 457.904 264.226 461.087 268.991C464.27 273.755 465.969 279.357 465.969 285.087C465.961 292.77 462.904 300.137 457.47 305.569C452.035 311.001 444.668 314.055 436.985 314.061ZM436.985 264.913C432.995 264.915 429.096 266.1 425.779 268.318C422.463 270.536 419.879 273.688 418.354 277.374C416.829 281.061 416.431 285.117 417.21 289.029C417.99 292.942 419.912 296.536 422.734 299.356C425.556 302.176 429.151 304.096 433.064 304.874C436.977 305.651 441.033 305.251 444.718 303.724C448.404 302.197 451.554 299.611 453.77 296.294C455.987 292.976 457.169 289.076 457.169 285.087C457.164 279.736 455.035 274.607 451.25 270.824C447.466 267.042 442.335 264.916 436.985 264.913Z" fill="#F0F0F0"/>
<path d="M436.999 296.527C443.317 296.527 448.439 291.405 448.439 285.087C448.439 278.769 443.317 273.647 436.999 273.647C430.68 273.647 425.559 278.769 425.559 285.087C425.559 291.405 430.68 296.527 436.999 296.527Z" fill="#F0F0F0"/>
<path d="M142.684 298.661C142.685 296.674 142.493 294.692 142.112 292.743L148.239 288.266C147.442 285.524 146.335 282.881 144.939 280.39L137.503 281.6C135.278 278.296 132.436 275.454 129.132 273.229L130.298 265.727C127.807 264.331 125.164 263.224 122.422 262.427L117.945 268.554C114.037 267.791 110.018 267.791 106.109 268.554L101.632 262.427C98.8943 263.226 96.2558 264.333 93.7673 265.727L94.9333 273.229C91.6221 275.452 88.7721 278.294 86.5403 281.6L79.0383 280.434C77.638 282.923 76.5307 285.566 75.7383 288.31L81.8653 292.787C81.0879 296.694 81.0879 300.716 81.8653 304.623L75.7823 309.1C76.5767 311.843 77.684 314.486 79.0823 316.976L86.5843 315.81C88.8096 319.113 91.652 321.955 94.9553 324.181L93.7893 331.672C96.2757 333.07 98.9147 334.177 101.654 334.972L106.131 328.845C110.04 329.607 114.059 329.607 117.967 328.845L122.444 334.972C125.188 334.179 127.831 333.072 130.32 331.672L129.154 324.181C132.458 321.955 135.3 319.113 137.525 315.81L145.027 316.976C146.421 314.483 147.528 311.841 148.327 309.1L142.2 304.623C142.555 302.656 142.717 300.659 142.684 298.661ZM112.005 313.786C109.014 313.786 106.09 312.899 103.602 311.237C101.115 309.575 99.1764 307.213 98.0316 304.449C96.8868 301.685 96.5873 298.644 97.1709 295.71C97.7545 292.776 99.195 290.081 101.31 287.966C103.426 285.851 106.121 284.41 109.055 283.826C111.989 283.243 115.03 283.542 117.793 284.687C120.557 285.832 122.919 287.77 124.581 290.258C126.243 292.745 127.13 295.669 127.13 298.661C127.127 302.671 125.533 306.517 122.697 309.353C119.861 312.188 116.016 313.783 112.005 313.786Z" fill="#EBEBEB"/>
<path d="M470.062 59.6086C470.059 57.6217 469.864 55.6398 469.479 53.6905L475.606 49.2135C474.81 46.4711 473.703 43.8286 472.306 41.3376L464.804 42.5146C462.606 39.1996 459.785 36.3419 456.499 34.0996L457.599 26.6416C455.111 25.2481 452.472 24.1411 449.734 23.3416L445.257 29.4796C441.35 28.7022 437.329 28.7022 433.421 29.4796L428.999 23.3746C426.257 24.172 423.615 25.2791 421.123 26.6746L422.278 34.0996C418.973 36.3223 416.13 39.1652 413.907 42.4706L406.405 41.2936C405.014 43.7868 403.907 46.4288 403.105 49.1695L409.232 53.6465C408.47 57.555 408.47 61.5741 409.232 65.4825L403.105 69.9595C403.903 72.7017 405.01 75.3441 406.405 77.8355L413.907 76.6695C416.133 79.9728 418.975 82.8152 422.278 85.0405L421.112 92.5425C423.604 93.9382 426.246 95.0453 428.988 95.8426L433.465 89.7155C437.374 90.4782 441.393 90.4782 445.301 89.7155L449.778 95.8426C452.516 95.0434 455.155 93.9363 457.643 92.5425L456.499 85.0846C459.803 82.8592 462.645 80.0168 464.87 76.7135L472.372 77.8796C473.773 75.3904 474.88 72.7474 475.672 70.0035L469.545 65.5265C469.908 63.5751 470.081 61.5933 470.062 59.6086ZM439.383 74.7336C436.392 74.7336 433.468 73.8465 430.98 72.1845C428.493 70.5226 426.555 68.1604 425.41 65.3966C424.265 62.6329 423.965 59.5918 424.549 56.6578C425.133 53.7238 426.573 51.0288 428.688 48.9136C430.804 46.7983 433.499 45.3578 436.433 44.7742C439.367 44.1906 442.408 44.4901 445.172 45.6349C447.935 46.7796 450.298 48.7183 451.959 51.2056C453.621 53.6928 454.508 56.6171 454.508 59.6086C454.51 61.5952 454.12 63.5626 453.36 65.3983C452.601 67.234 451.486 68.902 450.082 70.3068C448.677 71.7115 447.009 72.8256 445.173 73.5852C443.338 74.3448 441.37 74.735 439.383 74.7336Z" fill="#F0F0F0"/>
<path d="M416.72 108.9C416.72 107.906 416.624 106.915 416.434 105.941L419.503 103.741C419.112 102.368 418.562 101.047 417.864 99.8026L414.124 100.386C413.009 98.7355 411.586 97.3162 409.933 96.2057L410.516 92.4547C409.269 91.7644 407.948 91.2182 406.578 90.8267L404.378 93.8847C402.424 93.5021 400.414 93.5021 398.46 93.8847L396.26 90.8267C394.89 91.2182 393.568 91.7644 392.322 92.4547L392.905 96.2057C391.255 97.316 389.835 98.7355 388.725 100.386L384.974 99.8026C384.283 101.049 383.737 102.37 383.346 103.741L386.404 105.941C386.021 107.895 386.021 109.905 386.404 111.859L383.346 114.059C383.737 115.429 384.283 116.75 384.974 117.997L388.725 117.414C389.835 119.064 391.255 120.483 392.905 121.594L392.322 125.345C393.568 126.038 394.889 126.588 396.26 126.984L398.46 123.915C400.414 124.297 402.424 124.297 404.378 123.915L406.578 126.984C407.946 126.606 409.267 126.074 410.516 125.4L409.933 121.649C411.586 120.538 413.009 119.119 414.124 117.469L417.864 118.052C418.562 116.808 419.112 115.486 419.503 114.114L416.434 111.914C416.628 110.921 416.724 109.911 416.72 108.9ZM401.386 116.457C399.888 116.459 398.423 116.017 397.177 115.186C395.931 114.355 394.959 113.173 394.385 111.79C393.811 110.407 393.66 108.884 393.952 107.415C394.243 105.946 394.964 104.596 396.023 103.537C397.082 102.478 398.432 101.757 399.901 101.466C401.37 101.174 402.893 101.325 404.276 101.899C405.659 102.473 406.841 103.445 407.672 104.691C408.503 105.937 408.945 107.402 408.943 108.9C408.937 110.901 408.138 112.819 406.722 114.233C405.306 115.647 403.387 116.443 401.386 116.446V116.457Z" fill="#F0F0F0"/>
<path d="M275 405.581C392.79 405.581 488.279 400.006 488.279 393.129C488.279 386.252 392.79 380.677 275 380.677C157.209 380.677 61.7207 386.252 61.7207 393.129C61.7207 400.006 157.209 405.581 275 405.581Z" fill="#F5F5F5"/>
<path d="M274.078 346.5C273.589 346.313 273.048 346.313 272.56 346.5H234.83L218.979 392.986H258.777L259.602 390.5H262L275.321 349.173C275.497 348.654 275.466 348.086 275.235 347.588C275.003 347.09 274.589 346.701 274.078 346.5ZM256.775 368.412L255.411 372.658C254.988 373.941 254.172 375.057 253.077 375.847C251.983 376.637 250.666 377.061 249.317 377.058H247.414C246.64 377.059 245.876 376.877 245.186 376.527C244.496 376.177 243.899 375.668 243.443 375.042C242.987 374.417 242.686 373.693 242.563 372.928C242.441 372.164 242.501 371.382 242.739 370.645L244.114 366.399C244.534 365.118 245.348 364.002 246.441 363.212C247.533 362.422 248.848 361.997 250.197 361.999H252.111C252.886 361.999 253.651 362.183 254.342 362.535C255.033 362.887 255.63 363.398 256.085 364.026C256.54 364.654 256.84 365.381 256.96 366.147C257.08 366.914 257.016 367.697 256.775 368.434V368.412Z" fill="#6CC0A7"/>
<path opacity="0.3" d="M274.078 346.5C273.589 346.313 273.048 346.313 272.56 346.5H234.83L218.979 392.986H258.777L259.602 390.5H262L275.321 349.173C275.497 348.654 275.466 348.086 275.235 347.588C275.003 347.09 274.589 346.701 274.078 346.5ZM256.775 368.412L255.411 372.658C254.988 373.941 254.172 375.057 253.077 375.847C251.983 376.637 250.666 377.061 249.317 377.058H247.414C246.64 377.059 245.876 376.877 245.186 376.527C244.496 376.177 243.899 375.668 243.443 375.042C242.987 374.417 242.686 373.693 242.563 372.928C242.441 372.164 242.501 371.382 242.739 370.645L244.114 366.399C244.534 365.118 245.348 364.002 246.441 363.212C247.533 362.422 248.848 361.997 250.197 361.999H252.111C252.886 361.999 253.651 362.183 254.342 362.535C255.033 362.887 255.63 363.398 256.085 364.026C256.54 364.654 256.84 365.381 256.96 366.147C257.08 366.914 257.016 367.697 256.775 368.434V368.412Z" fill="white"/>
<path d="M305.244 390.5H265.996C266.559 390.5 267.099 390.724 267.497 391.122C267.895 391.52 268.119 392.06 268.119 392.623V393.426C268.121 393.706 268.067 393.982 267.96 394.241C267.854 394.499 267.698 394.733 267.501 394.931C267.303 395.128 267.068 395.285 266.81 395.391C266.552 395.497 266.275 395.551 265.996 395.549H305.244C305.522 395.549 305.798 395.494 306.055 395.388C306.312 395.281 306.545 395.124 306.741 394.927C306.938 394.73 307.093 394.495 307.198 394.238C307.304 393.98 307.358 393.705 307.356 393.426V392.623C307.356 392.062 307.134 391.524 306.738 391.126C306.342 390.728 305.805 390.503 305.244 390.5Z" fill="#6CC0A7"/>
<path opacity="0.3" d="M305.244 390.5H265.996C266.559 390.5 267.099 390.724 267.497 391.122C267.895 391.52 268.119 392.06 268.119 392.623V393.426C268.121 393.706 268.067 393.982 267.96 394.241C267.854 394.499 267.698 394.733 267.501 394.931C267.303 395.128 267.068 395.285 266.81 395.391C266.552 395.497 266.275 395.551 265.996 395.549H305.244C305.522 395.549 305.798 395.494 306.055 395.388C306.312 395.281 306.545 395.124 306.741 394.927C306.938 394.73 307.093 394.495 307.198 394.238C307.304 393.98 307.358 393.705 307.356 393.426V392.623C307.356 392.062 307.134 391.524 306.738 391.126C306.342 390.728 305.805 390.503 305.244 390.5Z" fill="white"/>
<path d="M265.994 395.527H216.703L232.103 347.853C232.192 347.578 232.335 347.324 232.525 347.107C232.715 346.89 232.948 346.713 233.208 346.589C233.469 346.464 233.752 346.394 234.04 346.382C234.329 346.371 234.617 346.419 234.886 346.522C235.391 346.718 235.802 347.099 236.035 347.588C236.268 348.076 236.306 348.636 236.14 349.151L222.753 390.5H265.994C266.557 390.5 267.097 390.724 267.495 391.122C267.893 391.52 268.117 392.06 268.117 392.623V393.426C268.116 393.704 268.06 393.978 267.952 394.234C267.845 394.489 267.688 394.721 267.491 394.916C267.294 395.112 267.06 395.266 266.803 395.371C266.546 395.475 266.271 395.529 265.994 395.527Z" fill="#6CC0A7"/>
<g opacity="0.6">
<path d="M265.994 395.527H216.703L232.103 347.853C232.192 347.579 232.335 347.325 232.525 347.107C232.715 346.89 232.948 346.713 233.208 346.589C233.469 346.464 233.752 346.394 234.04 346.383C234.329 346.371 234.617 346.419 234.886 346.522C235.391 346.718 235.802 347.099 236.035 347.588C236.268 348.077 236.306 348.636 236.14 349.151L222.753 390.5H265.994C266.557 390.5 267.097 390.724 267.495 391.122C267.893 391.52 268.117 392.06 268.117 392.623V393.426C268.116 393.704 268.06 393.978 267.952 394.234C267.845 394.489 267.688 394.721 267.491 394.917C267.294 395.112 267.06 395.266 266.803 395.371C266.546 395.476 266.271 395.529 265.994 395.527Z" fill="white"/>
</g>
<path d="M252.112 362.021H250.198C250.055 362.021 249.923 362.021 249.78 362.021C250.503 362.102 251.198 362.342 251.817 362.725C252.435 363.108 252.961 363.623 253.355 364.233C253.75 364.844 254.004 365.535 254.099 366.255C254.195 366.976 254.128 367.709 253.905 368.401L252.541 372.647C252.146 373.866 251.393 374.937 250.381 375.722C249.369 376.507 248.144 376.968 246.865 377.047C247.048 377.059 247.232 377.059 247.415 377.047H249.318C250.668 377.05 251.984 376.626 253.079 375.836C254.173 375.046 254.99 373.93 255.412 372.647L256.776 368.401C257.007 367.668 257.063 366.89 256.938 366.131C256.813 365.372 256.511 364.653 256.057 364.032C255.604 363.411 255.01 362.906 254.325 362.556C253.639 362.207 252.881 362.024 252.112 362.021Z" fill="#6CC0A7"/>
<path d="M166.554 211.113H147.051C146.102 211.094 145.161 211.278 144.29 211.653C143.418 212.028 142.637 212.584 141.997 213.285C141.358 213.985 140.876 214.814 140.582 215.716C140.289 216.619 140.192 217.573 140.297 218.516L151.297 345.016C151.504 347.022 152.438 348.883 153.924 350.247C155.409 351.611 157.343 352.383 159.36 352.419H178.852L166.554 211.113Z" fill="#E1316B"/>
<path opacity="0.2" d="M166.554 211.113H147.051C146.102 211.094 145.161 211.278 144.29 211.653C143.418 212.028 142.637 212.584 141.997 213.285C141.358 213.985 140.876 214.814 140.582 215.716C140.289 216.619 140.192 217.573 140.297 218.516L151.297 345.016C151.504 347.022 152.438 348.883 153.924 350.247C155.409 351.611 157.343 352.383 159.36 352.419H178.852L166.554 211.113Z" fill="white"/>
<path d="M339.104 352.363H164.457C162.44 352.33 160.507 351.558 159.022 350.194C157.538 348.829 156.606 346.967 156.405 344.96L145.339 218.46C145.235 217.517 145.334 216.563 145.629 215.66C145.923 214.758 146.407 213.929 147.047 213.229C147.687 212.528 148.469 211.972 149.341 211.598C150.213 211.224 151.155 211.039 152.104 211.057H326.707C328.723 211.09 330.656 211.863 332.141 213.227C333.625 214.592 334.557 216.454 334.759 218.46L345.825 344.96C345.927 345.9 345.83 346.851 345.538 347.75C345.246 348.649 344.766 349.475 344.131 350.175C343.495 350.875 342.719 351.432 341.852 351.809C340.985 352.186 340.049 352.375 339.104 352.363Z" fill="#E1316B"/>
<path opacity="0.5" d="M339.104 352.363H164.457C162.44 352.33 160.507 351.558 159.022 350.194C157.538 348.829 156.606 346.967 156.405 344.96L145.339 218.46C145.235 217.517 145.334 216.563 145.629 215.66C145.923 214.758 146.407 213.929 147.047 213.229C147.687 212.528 148.469 211.972 149.341 211.598C150.213 211.224 151.155 211.039 152.104 211.057H326.707C328.723 211.09 330.656 211.863 332.141 213.227C333.625 214.592 334.557 216.454 334.759 218.46L345.825 344.96C345.927 345.9 345.83 346.851 345.538 347.75C345.246 348.649 344.766 349.475 344.131 350.175C343.495 350.875 342.719 351.432 341.852 351.809C340.985 352.186 340.049 352.375 339.104 352.363Z" fill="white"/>
<path d="M155.279 332.2L156.379 344.971C156.581 346.978 157.513 348.84 158.997 350.204C160.481 351.569 162.415 352.341 164.431 352.374H339.1C340.049 352.392 340.991 352.208 341.863 351.834C342.735 351.459 343.517 350.903 344.157 350.203C344.797 349.502 345.281 348.673 345.575 347.771C345.87 346.869 345.969 345.915 345.865 344.971L344.765 332.2H155.279Z" fill="#E1316B"/>
<path opacity="0.2" d="M155.279 332.2L156.379 344.971C156.581 346.978 157.513 348.84 158.997 350.204C160.481 351.569 162.415 352.341 164.431 352.374H339.1C340.049 352.392 340.991 352.208 341.863 351.834C342.735 351.459 343.517 350.903 344.157 350.203C344.797 349.502 345.281 348.673 345.575 347.771C345.87 346.869 345.969 345.915 345.865 344.971L344.765 332.2H155.279Z" fill="white"/>
<path d="M151.553 217.416L161.046 325.876H337.893L328.4 217.416H151.553Z" fill="white"/>
<path d="M193.209 234.366H160.132L159.098 222.464H192.164L193.209 234.366Z" fill="#6CC0A7"/>
<path d="M248.788 228.415H228.691L228.174 222.464H248.271L248.788 228.415Z" fill="#6CC0A7"/>
<path d="M210.651 320.98H177.717L176.32 305.041H209.254L210.651 320.98Z" fill="#6CC0A7"/>
<path d="M250.45 320.98H217.516L216.119 305.041H249.053L250.45 320.98Z" fill="#6CC0A7"/>
<path d="M290.249 320.98H257.315L255.918 305.041H288.852L290.249 320.98Z" fill="#6CC0A7"/>
<path d="M330.048 320.98H297.114L295.717 305.041H328.651L330.048 320.98Z" fill="#6CC0A7"/>
<path d="M273.175 228.415H253.078L252.561 222.464H272.658L273.175 228.415Z" fill="#6CC0A7"/>
<path d="M297.564 228.415H277.467L276.939 222.464H297.047L297.564 228.415Z" fill="#6CC0A7"/>
<path d="M321.947 228.415H301.85L301.322 222.464H321.419L321.947 228.415Z" fill="#6CC0A7"/>
<path d="M335.546 299.673H158.699L153.705 242.671H330.563L335.546 299.673Z" fill="#6CC0A7"/>
<g opacity="0.9">
<path d="M193.211 234.366H160.134L159.1 222.464H192.166L193.211 234.366Z" fill="white"/>
<path d="M248.794 228.415H228.697L228.18 222.464H248.277L248.794 228.415Z" fill="white"/>
<path d="M210.657 320.98H177.723L176.326 305.041H209.26L210.657 320.98Z" fill="white"/>
<path d="M250.452 320.98H217.518L216.121 305.041H249.055L250.452 320.98Z" fill="white"/>
<path d="M290.251 320.98H257.317L255.92 305.041H288.854L290.251 320.98Z" fill="white"/>
<path d="M330.048 320.98H297.114L295.717 305.041H328.651L330.048 320.98Z" fill="white"/>
<path d="M273.176 228.415H253.08L252.562 222.464H272.659L273.176 228.415Z" fill="white"/>
<path d="M297.566 228.415H277.469L276.941 222.464H297.049L297.566 228.415Z" fill="white"/>
<path d="M321.957 228.415H301.86L301.332 222.464H321.429L321.957 228.415Z" fill="white"/>
<path d="M335.548 299.673H158.701L153.707 242.671H330.565L335.548 299.673Z" fill="white"/>
</g>
<path d="M265.27 285.087H244.59C243.15 285.06 241.771 284.507 240.711 283.532C239.651 282.557 238.984 281.229 238.837 279.796L237.022 259.116C236.953 258.413 237.033 257.704 237.254 257.033C237.476 256.363 237.835 255.746 238.309 255.222C238.786 254.705 239.366 254.293 240.012 254.015C240.659 253.736 241.356 253.597 242.06 253.605H262.74C264.18 253.633 265.559 254.186 266.619 255.161C267.679 256.135 268.345 257.464 268.493 258.896L270.308 279.576C270.376 280.279 270.297 280.989 270.076 281.659C269.854 282.33 269.495 282.947 269.021 283.47C268.544 283.988 267.964 284.399 267.317 284.678C266.671 284.957 265.974 285.096 265.27 285.087ZM242.06 256.08C241.698 256.07 241.339 256.137 241.006 256.279C240.673 256.42 240.374 256.632 240.131 256.899C239.888 257.167 239.705 257.484 239.595 257.828C239.486 258.173 239.452 258.537 239.497 258.896L241.301 279.576C241.384 280.399 241.766 281.162 242.374 281.721C242.982 282.281 243.775 282.598 244.601 282.612H265.281C265.641 282.62 265.998 282.551 266.33 282.411C266.662 282.27 266.96 282.062 267.206 281.798C267.448 281.528 267.631 281.211 267.742 280.866C267.854 280.521 267.893 280.157 267.855 279.796L266.04 259.116C265.957 258.294 265.575 257.531 264.967 256.972C264.358 256.412 263.566 256.095 262.74 256.08H242.06Z" fill="#6CC0A7"/>
<g opacity="0.5">
<path d="M265.262 285.087H244.582C243.143 285.06 241.763 284.507 240.703 283.532C239.643 282.557 238.977 281.229 238.829 279.796L237.014 259.116C236.946 258.413 237.025 257.704 237.246 257.033C237.468 256.363 237.827 255.746 238.301 255.222C238.778 254.705 239.358 254.293 240.005 254.015C240.651 253.736 241.348 253.597 242.052 253.605H262.732C264.172 253.633 265.552 254.186 266.611 255.161C267.671 256.135 268.338 257.464 268.485 258.896L270.3 279.576C270.369 280.279 270.289 280.989 270.068 281.659C269.846 282.33 269.487 282.947 269.013 283.47C268.536 283.988 267.956 284.399 267.31 284.678C266.663 284.957 265.966 285.096 265.262 285.087ZM242.052 256.08C241.691 256.07 241.331 256.137 240.998 256.279C240.665 256.42 240.367 256.632 240.123 256.899C239.88 257.167 239.697 257.484 239.588 257.828C239.478 258.173 239.445 258.537 239.489 258.896L241.293 279.576C241.376 280.399 241.758 281.162 242.366 281.721C242.975 282.281 243.767 282.598 244.593 282.612H265.273C265.633 282.62 265.991 282.551 266.322 282.411C266.654 282.27 266.952 282.062 267.198 281.798C267.44 281.528 267.623 281.211 267.735 280.866C267.846 280.521 267.885 280.157 267.847 279.796L266.032 259.116C265.949 258.294 265.567 257.531 264.959 256.972C264.351 256.412 263.558 256.095 262.732 256.08H242.052Z" fill="white"/>
</g>
<path d="M249.376 277.959L233.591 263.439C233.062 262.951 232.748 262.272 232.719 261.552C232.69 260.832 232.948 260.13 233.437 259.6C233.678 259.337 233.969 259.125 234.292 258.974C234.616 258.823 234.966 258.738 235.322 258.723C235.679 258.707 236.035 258.762 236.37 258.885C236.705 259.007 237.013 259.194 237.276 259.435L249.046 270.248L271.838 245.3C272.326 244.767 273.005 244.449 273.727 244.416C274.448 244.383 275.154 244.638 275.688 245.124C276.221 245.612 276.539 246.291 276.572 247.013C276.605 247.735 276.35 248.44 275.864 248.974L249.376 277.959Z" fill="#E1316B"/>
<g opacity="0.2">
<path d="M249.376 277.959L233.591 263.439C233.062 262.951 232.748 262.272 232.719 261.552C232.69 260.832 232.948 260.13 233.437 259.6C233.678 259.337 233.969 259.125 234.292 258.974C234.616 258.823 234.966 258.738 235.322 258.723C235.679 258.707 236.035 258.762 236.37 258.885C236.705 259.007 237.013 259.194 237.276 259.435L249.046 270.248L271.838 245.3C272.326 244.767 273.005 244.449 273.727 244.416C274.448 244.383 275.154 244.638 275.688 245.124C276.221 245.612 276.539 246.291 276.572 247.013C276.605 247.735 276.35 248.44 275.864 248.974L249.376 277.959Z" fill="#EB7446"/>
</g>
<path d="M195.455 71.0015H185.962C184.712 70.9784 183.472 71.222 182.323 71.7159C181.175 72.2098 180.145 72.9427 179.302 73.8659C178.459 74.7891 177.822 75.8813 177.434 77.0698C177.046 78.2583 176.916 79.5157 177.052 80.7585L187.645 201.835C187.916 204.478 189.146 206.93 191.102 208.728C193.058 210.525 195.604 211.545 198.26 211.592H207.753L195.455 71.0015Z" fill="#E1316B"/>
<path opacity="0.2" d="M195.455 71.0015H185.962C184.712 70.9784 183.472 71.222 182.323 71.7159C181.175 72.2098 180.145 72.9427 179.302 73.8659C178.459 74.7891 177.822 75.8813 177.434 77.0698C177.046 78.2583 176.916 79.5157 177.052 80.7585L187.645 201.835C187.916 204.478 189.146 206.93 191.102 208.728C193.058 210.525 195.604 211.545 198.26 211.592H207.753L195.455 71.0015Z" fill="white"/>
<path d="M202.044 211.592H285.226C286.475 211.614 287.714 211.369 288.861 210.875C290.008 210.38 291.037 209.647 291.879 208.724C292.721 207.801 293.356 206.709 293.743 205.522C294.131 204.334 294.261 203.077 294.125 201.835L283.543 80.7585C283.271 78.1159 282.042 75.664 280.086 73.8663C278.13 72.0686 275.584 71.0495 272.928 71.0015H189.746C188.496 70.9784 187.255 71.222 186.107 71.7159C184.958 72.2098 183.928 72.9427 183.085 73.8659C182.242 74.7891 181.605 75.8813 181.217 77.0698C180.83 78.2583 180.699 79.5157 180.836 80.7585L191.429 201.835C191.7 204.478 192.929 206.93 194.885 208.728C196.841 210.525 199.387 211.544 202.044 211.592Z" fill="#E1316B"/>
<path opacity="0.5" d="M202.044 211.592H285.226C286.475 211.614 287.714 211.369 288.861 210.875C290.008 210.38 291.037 209.647 291.879 208.724C292.721 207.801 293.356 206.709 293.743 205.522C294.131 204.334 294.261 203.077 294.125 201.835L283.543 80.7585C283.271 78.1159 282.042 75.664 280.086 73.8663C278.13 72.0686 275.584 71.0495 272.928 71.0015H189.746C188.496 70.9784 187.255 71.222 186.107 71.7159C184.958 72.2098 183.928 72.9427 183.085 73.8659C182.242 74.7891 181.605 75.8813 181.217 77.0698C180.83 78.2583 180.699 79.5157 180.836 80.7585L191.429 201.835C191.7 204.478 192.929 206.93 194.885 208.728C196.841 210.525 199.387 211.544 202.044 211.592Z" fill="white"/>
<path d="M290.726 201.836L280.133 80.7585H184.246L194.839 201.836H290.726Z" fill="white"/>
<path d="M243.446 209.502C242.616 209.477 241.823 209.151 241.216 208.584C240.609 208.017 240.229 207.249 240.146 206.422C240.102 206.032 240.142 205.637 240.263 205.263C240.384 204.889 240.584 204.546 240.848 204.255C241.113 203.965 241.436 203.734 241.797 203.579C242.158 203.423 242.547 203.346 242.94 203.353C243.769 203.376 244.562 203.7 245.169 204.265C245.777 204.83 246.158 205.597 246.24 206.422C246.282 206.813 246.241 207.208 246.119 207.582C245.998 207.955 245.798 208.299 245.534 208.589C245.27 208.88 244.948 209.112 244.588 209.27C244.228 209.427 243.839 209.506 243.446 209.502ZM242.984 204.112C242.687 204.106 242.393 204.163 242.12 204.279C241.847 204.396 241.602 204.569 241.401 204.788C241.2 205.006 241.048 205.265 240.955 205.547C240.862 205.829 240.83 206.127 240.861 206.422C240.928 207.049 241.22 207.63 241.684 208.057C242.147 208.484 242.75 208.728 243.38 208.743C243.677 208.748 243.972 208.69 244.244 208.572C244.517 208.454 244.761 208.28 244.961 208.06C245.161 207.841 245.311 207.581 245.403 207.299C245.495 207.016 245.525 206.718 245.492 206.422C245.43 205.797 245.14 205.216 244.678 204.79C244.216 204.364 243.613 204.123 242.984 204.112Z" fill="#E1316B"/>
<path d="M275.973 92.5286H268.911L268.295 85.4666H275.357L275.973 92.5286Z" fill="#6CC0A7"/>
<path d="M210.901 92.5286H190.716L190.1 85.4666H210.285L210.901 92.5286Z" fill="#6CC0A7"/>
<path d="M280.617 145.504H195.356L191.473 101.108H276.723L280.617 145.504Z" fill="#6CC0A7"/>
<path d="M249.044 194.157H199.61L195.881 151.554H245.326L249.044 194.157Z" fill="#6CC0A7"/>
<path d="M262.564 161.267H251.212L250.365 151.554H261.717L262.564 161.267Z" fill="#6CC0A7"/>
<path d="M278.409 154.877H265.979C265.534 154.868 265.106 154.697 264.778 154.395C264.449 154.093 264.243 153.681 264.197 153.237C264.176 153.029 264.198 152.818 264.264 152.619C264.329 152.42 264.436 152.237 264.578 152.082C264.719 151.927 264.891 151.804 265.084 151.721C265.276 151.638 265.484 151.596 265.693 151.599H278.123C278.569 151.609 278.995 151.781 279.323 152.083C279.65 152.384 279.858 152.795 279.905 153.237C279.927 153.446 279.905 153.657 279.839 153.856C279.774 154.055 279.667 154.238 279.525 154.393C279.384 154.548 279.211 154.671 279.019 154.754C278.827 154.837 278.619 154.879 278.409 154.877Z" fill="#6CC0A7"/>
<path d="M280.354 161.267H266.538C266.093 161.257 265.667 161.084 265.339 160.783C265.011 160.481 264.804 160.071 264.756 159.628C264.734 159.42 264.757 159.209 264.822 159.01C264.888 158.811 264.995 158.628 265.136 158.473C265.278 158.318 265.45 158.195 265.642 158.112C265.835 158.028 266.042 157.987 266.252 157.989H280.068C280.514 157.998 280.941 158.169 281.27 158.471C281.598 158.773 281.804 159.185 281.85 159.628C281.872 159.837 281.849 160.048 281.784 160.247C281.718 160.446 281.611 160.629 281.47 160.784C281.329 160.938 281.156 161.062 280.964 161.145C280.771 161.228 280.564 161.27 280.354 161.267Z" fill="#6CC0A7"/>
<path d="M279.53 167.703H253.427C252.98 167.695 252.551 167.524 252.221 167.222C251.891 166.92 251.682 166.508 251.634 166.064C251.611 165.855 251.632 165.643 251.697 165.443C251.762 165.244 251.869 165.06 252.01 164.905C252.152 164.749 252.325 164.626 252.518 164.544C252.712 164.461 252.92 164.42 253.13 164.425H279.244C279.691 164.431 280.12 164.601 280.449 164.904C280.777 165.206 280.983 165.619 281.026 166.064C281.048 166.272 281.025 166.483 280.96 166.682C280.894 166.881 280.787 167.064 280.646 167.219C280.505 167.374 280.332 167.497 280.14 167.58C279.948 167.664 279.74 167.705 279.53 167.703Z" fill="#6CC0A7"/>
<path d="M281.475 174.126H253.975C253.528 174.12 253.099 173.95 252.771 173.647C252.442 173.345 252.236 172.932 252.193 172.487C252.169 172.278 252.191 172.067 252.256 171.867C252.32 171.667 252.427 171.483 252.569 171.328C252.711 171.173 252.884 171.05 253.077 170.967C253.27 170.884 253.479 170.844 253.689 170.848H281.189C281.636 170.854 282.064 171.025 282.393 171.327C282.722 171.63 282.928 172.043 282.971 172.487C282.994 172.696 282.973 172.908 282.908 173.107C282.843 173.307 282.737 173.491 282.595 173.646C282.453 173.801 282.28 173.925 282.087 174.007C281.894 174.09 281.685 174.131 281.475 174.126Z" fill="#6CC0A7"/>
<path d="M278.507 180.561H254.549C254.103 180.553 253.676 180.382 253.347 180.08C253.019 179.778 252.813 179.366 252.767 178.922C252.744 178.713 252.765 178.502 252.83 178.302C252.895 178.102 253.001 177.918 253.143 177.763C253.285 177.608 253.458 177.485 253.651 177.402C253.844 177.319 254.053 177.279 254.263 177.283H278.265C278.712 177.289 279.141 177.46 279.469 177.762C279.798 178.065 280.004 178.478 280.047 178.922C280.071 179.135 280.049 179.35 279.982 179.553C279.914 179.757 279.803 179.943 279.657 180.099C279.51 180.255 279.332 180.377 279.133 180.457C278.934 180.537 278.721 180.572 278.507 180.561Z" fill="#6CC0A7"/>
<path d="M282.663 186.997H255.163C254.717 186.988 254.29 186.817 253.961 186.515C253.633 186.213 253.427 185.801 253.381 185.358C253.359 185.149 253.382 184.938 253.447 184.739C253.513 184.54 253.62 184.357 253.761 184.202C253.903 184.048 254.075 183.924 254.267 183.841C254.46 183.758 254.667 183.716 254.877 183.719H282.377C282.822 183.729 283.248 183.902 283.576 184.203C283.904 184.505 284.111 184.915 284.159 185.358C284.181 185.566 284.158 185.777 284.093 185.976C284.027 186.175 283.92 186.358 283.779 186.513C283.638 186.668 283.465 186.791 283.273 186.874C283.08 186.958 282.873 186.999 282.663 186.997Z" fill="#6CC0A7"/>
<path d="M274.621 193.431H255.668C255.222 193.423 254.795 193.252 254.467 192.95C254.138 192.648 253.932 192.236 253.886 191.792C253.863 191.584 253.884 191.372 253.949 191.172C254.014 190.972 254.121 190.789 254.262 190.633C254.404 190.478 254.577 190.355 254.77 190.272C254.964 190.189 255.172 190.149 255.382 190.153H274.335C274.782 190.159 275.211 190.33 275.539 190.632C275.868 190.935 276.074 191.348 276.117 191.792C276.139 192.001 276.116 192.212 276.051 192.411C275.985 192.61 275.878 192.793 275.737 192.948C275.596 193.102 275.423 193.226 275.231 193.309C275.039 193.392 274.831 193.434 274.621 193.431Z" fill="#6CC0A7"/>
<path opacity="0.9" d="M275.973 92.5286H268.911L268.295 85.4666H275.357L275.973 92.5286Z" fill="white"/>
<path opacity="0.9" d="M210.901 92.5286H190.716L190.1 85.4666H210.285L210.901 92.5286Z" fill="white"/>
<path opacity="0.9" d="M280.617 145.504H195.356L191.473 101.108H276.723L280.617 145.504Z" fill="white"/>
<path opacity="0.9" d="M249.044 194.157H199.61L195.881 151.554H245.326L249.044 194.157Z" fill="white"/>
<path opacity="0.9" d="M262.564 161.267H251.212L250.365 151.554H261.717L262.564 161.267Z" fill="white"/>
<path opacity="0.9" d="M278.409 154.877H265.979C265.534 154.868 265.106 154.697 264.778 154.395C264.449 154.093 264.243 153.681 264.197 153.237C264.176 153.029 264.198 152.818 264.264 152.619C264.329 152.42 264.436 152.237 264.578 152.082C264.719 151.927 264.891 151.804 265.084 151.721C265.276 151.638 265.484 151.596 265.693 151.599H278.123C278.569 151.609 278.995 151.781 279.323 152.083C279.65 152.384 279.858 152.795 279.905 153.237C279.927 153.446 279.905 153.657 279.839 153.856C279.774 154.055 279.667 154.238 279.525 154.393C279.384 154.548 279.211 154.671 279.019 154.754C278.827 154.837 278.619 154.879 278.409 154.877Z" fill="white"/>
<path opacity="0.9" d="M280.354 161.267H266.538C266.093 161.257 265.667 161.084 265.339 160.783C265.011 160.481 264.804 160.071 264.756 159.628C264.734 159.42 264.757 159.209 264.822 159.01C264.888 158.811 264.995 158.628 265.136 158.473C265.278 158.318 265.45 158.195 265.642 158.112C265.835 158.028 266.042 157.987 266.252 157.989H280.068C280.514 157.998 280.941 158.169 281.27 158.471C281.598 158.773 281.804 159.185 281.85 159.628C281.872 159.837 281.849 160.048 281.784 160.247C281.718 160.446 281.611 160.629 281.47 160.784C281.329 160.938 281.156 161.062 280.964 161.145C280.771 161.228 280.564 161.27 280.354 161.267Z" fill="white"/>
<path opacity="0.9" d="M279.53 167.703H253.427C252.98 167.695 252.551 167.524 252.221 167.222C251.891 166.92 251.682 166.508 251.634 166.064C251.611 165.855 251.632 165.643 251.697 165.443C251.762 165.244 251.869 165.06 252.01 164.905C252.152 164.749 252.325 164.626 252.518 164.544C252.712 164.461 252.92 164.42 253.13 164.425H279.244C279.691 164.431 280.12 164.601 280.449 164.904C280.777 165.206 280.983 165.619 281.026 166.064C281.048 166.272 281.025 166.483 280.96 166.682C280.894 166.881 280.787 167.064 280.646 167.219C280.505 167.374 280.332 167.497 280.14 167.58C279.948 167.664 279.74 167.705 279.53 167.703Z" fill="white"/>
<path opacity="0.9" d="M281.475 174.126H253.975C253.528 174.12 253.099 173.95 252.771 173.647C252.442 173.345 252.236 172.932 252.193 172.487C252.169 172.278 252.191 172.067 252.256 171.867C252.32 171.667 252.427 171.483 252.569 171.328C252.711 171.173 252.884 171.05 253.077 170.967C253.27 170.884 253.479 170.844 253.689 170.848H281.189C281.636 170.854 282.064 171.025 282.393 171.327C282.722 171.63 282.928 172.043 282.971 172.487C282.994 172.696 282.973 172.908 282.908 173.107C282.843 173.307 282.737 173.491 282.595 173.646C282.453 173.801 282.28 173.925 282.087 174.007C281.894 174.09 281.685 174.131 281.475 174.126Z" fill="white"/>
<path opacity="0.9" d="M278.507 180.561H254.549C254.103 180.553 253.676 180.382 253.347 180.08C253.019 179.778 252.813 179.366 252.767 178.922C252.744 178.713 252.765 178.502 252.83 178.302C252.895 178.102 253.001 177.918 253.143 177.763C253.285 177.608 253.458 177.485 253.651 177.402C253.844 177.319 254.053 177.279 254.263 177.283H278.265C278.712 177.289 279.141 177.46 279.469 177.762C279.798 178.065 280.004 178.478 280.047 178.922C280.071 179.135 280.049 179.35 279.982 179.553C279.914 179.757 279.803 179.943 279.657 180.099C279.51 180.255 279.332 180.377 279.133 180.457C278.934 180.537 278.721 180.572 278.507 180.561Z" fill="white"/>
<path opacity="0.9" d="M282.663 186.997H255.163C254.717 186.988 254.29 186.817 253.961 186.515C253.633 186.213 253.427 185.801 253.381 185.358C253.359 185.149 253.382 184.938 253.447 184.739C253.513 184.54 253.62 184.357 253.761 184.202C253.903 184.048 254.075 183.924 254.267 183.841C254.46 183.758 254.667 183.716 254.877 183.719H282.377C282.822 183.729 283.248 183.902 283.576 184.203C283.904 184.505 284.111 184.915 284.159 185.358C284.181 185.566 284.158 185.777 284.093 185.976C284.027 186.175 283.92 186.358 283.779 186.513C283.638 186.668 283.465 186.791 283.273 186.874C283.08 186.958 282.873 186.999 282.663 186.997Z" fill="white"/>
<path opacity="0.9" d="M274.621 193.431H255.668C255.222 193.423 254.795 193.252 254.467 192.95C254.138 192.648 253.932 192.236 253.886 191.792C253.863 191.584 253.884 191.372 253.949 191.172C254.014 190.972 254.121 190.789 254.262 190.633C254.404 190.478 254.577 190.355 254.77 190.272C254.964 190.189 255.172 190.149 255.382 190.153H274.335C274.782 190.159 275.211 190.33 275.539 190.632C275.868 190.935 276.074 191.348 276.117 191.792C276.139 192.001 276.116 192.212 276.051 192.411C275.985 192.61 275.878 192.793 275.737 192.948C275.596 193.102 275.423 193.226 275.231 193.309C275.039 193.392 274.831 193.434 274.621 193.431Z" fill="white"/>
<path d="M253.69 145.834H235.078C233.782 145.811 232.538 145.314 231.583 144.436C230.629 143.559 230.029 142.361 229.897 141.071L228.269 122.459C228.202 121.828 228.27 121.189 228.468 120.586C228.666 119.982 228.99 119.428 229.419 118.959C229.847 118.49 230.37 118.117 230.953 117.865C231.536 117.614 232.166 117.489 232.801 117.498H251.402C252.7 117.521 253.945 118.018 254.901 118.895C255.858 119.773 256.46 120.97 256.594 122.261L258.222 140.873C258.284 141.507 258.212 142.147 258.011 142.752C257.811 143.356 257.485 143.912 257.056 144.382C256.628 144.847 256.108 145.217 255.528 145.467C254.948 145.717 254.322 145.842 253.69 145.834ZM232.79 119.731C232.462 119.711 232.134 119.765 231.829 119.888C231.525 120.011 231.252 120.201 231.03 120.444C230.808 120.686 230.644 120.976 230.549 121.29C230.454 121.605 230.43 121.937 230.48 122.261L232.108 140.873C232.183 141.611 232.526 142.296 233.071 142.798C233.616 143.301 234.326 143.586 235.067 143.601H253.679C254.002 143.609 254.323 143.548 254.62 143.423C254.918 143.298 255.186 143.111 255.406 142.875C255.624 142.632 255.788 142.346 255.888 142.035C255.989 141.724 256.023 141.396 255.989 141.071L254.361 122.459C254.286 121.72 253.942 121.034 253.395 120.531C252.847 120.028 252.134 119.744 251.391 119.731H232.79Z" fill="#6CC0A7"/>
<g opacity="0.5">
<path d="M253.686 145.835H235.074C233.778 145.812 232.534 145.314 231.58 144.437C230.625 143.559 230.025 142.362 229.893 141.072L228.265 122.46C228.198 121.828 228.266 121.189 228.464 120.586C228.662 119.982 228.986 119.428 229.415 118.959C229.843 118.49 230.366 118.117 230.949 117.866C231.532 117.614 232.162 117.489 232.797 117.499H251.398C252.696 117.521 253.941 118.018 254.897 118.896C255.854 119.773 256.456 120.97 256.59 122.262L258.218 140.874C258.28 141.507 258.208 142.147 258.007 142.752C257.807 143.356 257.481 143.912 257.052 144.383C256.625 144.847 256.104 145.217 255.524 145.467C254.944 145.717 254.318 145.842 253.686 145.835ZM232.786 119.732C232.458 119.711 232.13 119.765 231.825 119.888C231.521 120.011 231.248 120.201 231.026 120.444C230.805 120.687 230.64 120.976 230.545 121.29C230.45 121.605 230.426 121.937 230.476 122.262L232.104 140.874C232.179 141.611 232.522 142.296 233.067 142.798C233.612 143.301 234.322 143.587 235.063 143.602H253.675C253.998 143.609 254.319 143.549 254.616 143.423C254.914 143.298 255.182 143.112 255.402 142.876C255.62 142.632 255.784 142.346 255.884 142.035C255.985 141.725 256.019 141.396 255.985 141.072L254.357 122.46C254.282 121.72 253.938 121.034 253.391 120.531C252.843 120.028 252.13 119.744 251.387 119.732H232.786Z" fill="white"/>
</g>
<path d="M239.379 139.476L225.178 126.408C224.94 126.191 224.747 125.929 224.611 125.636C224.475 125.344 224.398 125.028 224.385 124.706C224.372 124.384 224.422 124.062 224.534 123.76C224.645 123.457 224.816 123.18 225.035 122.943C225.476 122.469 226.086 122.187 226.733 122.16C227.38 122.133 228.011 122.364 228.489 122.8L239.082 132.535L259.564 109.996C260.002 109.515 260.613 109.227 261.263 109.196C261.912 109.165 262.548 109.394 263.029 109.831C263.509 110.271 263.795 110.882 263.824 111.532C263.853 112.182 263.622 112.816 263.183 113.296L239.379 139.476Z" fill="#E1316B"/>
<g opacity="0.2">
<path d="M239.379 139.476L225.178 126.408C224.94 126.191 224.747 125.929 224.611 125.636C224.475 125.344 224.398 125.028 224.385 124.706C224.372 124.384 224.422 124.062 224.534 123.76C224.645 123.457 224.816 123.18 225.035 122.943C225.476 122.469 226.086 122.187 226.733 122.16C227.38 122.133 228.011 122.364 228.489 122.8L239.082 132.535L259.564 109.996C260.002 109.515 260.613 109.227 261.263 109.196C261.912 109.165 262.548 109.394 263.029 109.831C263.509 110.271 263.795 110.882 263.824 111.532C263.853 112.182 263.622 112.816 263.183 113.296L239.379 139.476Z" fill="#EB7446"/>
</g>
<path d="M89.7475 295.669H82.8505C82.1995 295.657 81.5535 295.784 80.9554 296.042C80.3574 296.299 79.821 296.681 79.3818 297.162C78.9427 297.642 78.611 298.211 78.4087 298.83C78.2064 299.449 78.1381 300.104 78.2085 300.751L85.9085 388.685C86.0477 390.057 86.6836 391.331 87.6966 392.267C88.7095 393.203 90.0297 393.736 91.4085 393.767H98.3385L89.7475 295.669Z" fill="#E1316B"/>
<path opacity="0.2" d="M89.7475 295.669H82.8505C82.1995 295.657 81.5535 295.784 80.9554 296.042C80.3574 296.299 79.821 296.681 79.3818 297.162C78.9427 297.642 78.611 298.211 78.4087 298.83C78.2064 299.449 78.1381 300.104 78.2085 300.751L85.9085 388.685C86.0477 390.057 86.6836 391.331 87.6966 392.267C88.7095 393.203 90.0297 393.736 91.4085 393.767H98.3385L89.7475 295.669Z" fill="white"/>
<path d="M201.994 393.8H94.4359C93.057 393.769 91.7369 393.236 90.7239 392.3C89.711 391.364 89.075 390.09 88.9359 388.718L81.2359 300.784C81.1655 300.137 81.2337 299.482 81.436 298.863C81.6383 298.244 81.9701 297.675 82.4092 297.195C82.8483 296.714 83.3847 296.332 83.9828 296.075C84.5809 295.817 85.2269 295.69 85.8779 295.702H193.436C194.815 295.732 196.135 296.266 197.148 297.202C198.161 298.138 198.797 299.412 198.936 300.784L206.636 388.718C206.708 389.366 206.641 390.021 206.439 390.641C206.238 391.26 205.906 391.83 205.467 392.311C205.027 392.792 204.49 393.174 203.891 393.431C203.292 393.687 202.645 393.813 201.994 393.8Z" fill="#E1316B"/>
<path opacity="0.5" d="M201.994 393.8H94.4359C93.057 393.769 91.7369 393.236 90.7239 392.3C89.711 391.364 89.075 390.09 88.9359 388.718L81.2359 300.784C81.1655 300.137 81.2337 299.482 81.436 298.863C81.6383 298.244 81.9701 297.675 82.4092 297.195C82.8483 296.714 83.3847 296.332 83.9828 296.075C84.5809 295.817 85.2269 295.69 85.8779 295.702H193.436C194.815 295.732 196.135 296.266 197.148 297.202C198.161 298.138 198.797 299.412 198.936 300.784L206.636 388.718C206.708 389.366 206.641 390.021 206.439 390.641C206.238 391.26 205.906 391.83 205.467 392.311C205.027 392.792 204.49 393.174 203.891 393.431C203.292 393.687 202.645 393.813 201.994 393.8Z" fill="white"/>
<path d="M155.098 386.474H272.798V388.85C272.798 390.6 272.102 392.279 270.865 393.517C269.627 394.755 267.948 395.45 266.198 395.45H155.098V386.485V386.474Z" fill="#E1316B"/>
<path opacity="0.2" d="M155.098 386.474H272.798V388.85C272.798 390.6 272.102 392.279 270.865 393.517C269.627 394.755 267.948 395.45 266.198 395.45H155.098V386.485V386.474Z" fill="white"/>
<path opacity="0.4" d="M223.673 390.962H214.268C213.08 390.959 211.941 390.485 211.102 389.643C210.262 388.802 209.791 387.662 209.791 386.474H228.161C228.161 387.664 227.688 388.806 226.847 389.647C226.005 390.489 224.863 390.962 223.673 390.962Z" fill="white"/>
<path d="M199.857 378.906L193.092 301.554H87.1953L93.9603 378.906H199.857Z" fill="white"/>
<path d="M144.836 298.661C144.855 298.827 144.838 298.995 144.787 299.155C144.736 299.314 144.651 299.46 144.538 299.584C144.426 299.708 144.288 299.806 144.135 299.873C143.982 299.939 143.816 299.973 143.648 299.97C143.291 299.964 142.949 299.827 142.685 299.586C142.422 299.345 142.256 299.016 142.218 298.661C142.199 298.494 142.217 298.325 142.269 298.165C142.321 298.005 142.406 297.858 142.52 297.734C142.634 297.61 142.773 297.511 142.927 297.445C143.082 297.38 143.249 297.348 143.417 297.352C143.774 297.356 144.116 297.492 144.379 297.734C144.641 297.975 144.804 298.306 144.836 298.661Z" fill="#6CC0A7"/>
<path d="M89.2617 386.474H163.05V388.85C163.05 390.6 162.354 392.279 161.117 393.517C159.879 394.755 158.2 395.45 156.45 395.45H95.8617C94.1113 395.45 92.4325 394.755 91.1948 393.517C89.9571 392.279 89.2617 390.6 89.2617 388.85V386.474Z" fill="#E1316B"/>
<path opacity="0.4" d="M100.789 391.798H95.6957C95.404 391.798 95.1242 391.682 94.9179 391.476C94.7116 391.27 94.5957 390.99 94.5957 390.698C94.5957 390.406 94.7116 390.127 94.9179 389.92C95.1242 389.714 95.404 389.598 95.6957 389.598H100.811C101.102 389.598 101.382 389.714 101.589 389.92C101.795 390.127 101.911 390.406 101.911 390.698C101.911 390.844 101.882 390.989 101.825 391.124C101.768 391.259 101.685 391.381 101.581 391.484C101.476 391.586 101.352 391.667 101.216 391.721C101.08 391.775 100.935 391.801 100.789 391.798Z" fill="white"/>
<path opacity="0.4" d="M111.791 391.798H106.698C106.406 391.798 106.126 391.682 105.92 391.476C105.714 391.27 105.598 390.99 105.598 390.698C105.598 390.406 105.714 390.127 105.92 389.92C106.126 389.714 106.406 389.598 106.698 389.598H111.813C112.104 389.598 112.384 389.714 112.59 389.92C112.797 390.127 112.913 390.406 112.913 390.698C112.913 390.844 112.884 390.989 112.827 391.124C112.77 391.259 112.687 391.381 112.583 391.484C112.478 391.586 112.354 391.667 112.218 391.721C112.082 391.775 111.937 391.801 111.791 391.798Z" fill="white"/>
<path d="M110.92 313.797H93.0562L92.4512 306.856H110.315L110.92 313.797Z" fill="#6CC0A7"/>
<path d="M149.434 309.375H138.247L138.027 306.856H149.214L149.434 309.375Z" fill="#6CC0A7"/>
<path d="M162.887 309.375H151.7L151.48 306.856H162.667L162.887 309.375Z" fill="#6CC0A7"/>
<path d="M176.339 309.375H165.152L164.932 306.856H176.119L176.339 309.375Z" fill="#6CC0A7"/>
<path d="M189.792 309.375H178.605L178.385 306.856H189.572L189.792 309.375Z" fill="#6CC0A7"/>
<path d="M191.828 332.717H94.7197L93.3887 317.581H190.508L191.828 332.717Z" fill="#6CC0A7"/>
<path d="M157.627 364.661H97.5122L94.9492 335.445H155.075L157.627 364.661Z" fill="#6CC0A7"/>
<path d="M141.018 370.546H99.3937C99.0195 370.545 98.6591 370.405 98.3826 370.152C98.1061 369.9 97.9332 369.554 97.8977 369.182C97.879 369.008 97.8974 368.833 97.9515 368.667C98.0057 368.501 98.0945 368.349 98.212 368.22C98.3295 368.091 98.4731 367.988 98.6332 367.919C98.7933 367.85 98.9663 367.815 99.1407 367.818H140.798C141.169 367.826 141.524 367.969 141.797 368.22C142.07 368.471 142.243 368.813 142.283 369.182C142.302 369.357 142.283 369.535 142.227 369.702C142.172 369.869 142.081 370.023 141.961 370.152C141.841 370.282 141.695 370.384 141.532 370.452C141.369 370.519 141.194 370.552 141.018 370.546Z" fill="#6CC0A7"/>
<path d="M136.981 374.968H99.7791C99.4076 374.962 99.0512 374.819 98.7775 374.568C98.5038 374.317 98.3318 373.973 98.2941 373.604C98.2756 373.43 98.2939 373.254 98.348 373.087C98.4021 372.921 98.4907 372.768 98.608 372.638C98.7254 372.508 98.8688 372.405 99.0289 372.334C99.189 372.264 99.3622 372.228 99.5371 372.229H136.75C137.123 372.238 137.479 372.382 137.753 372.635C138.026 372.889 138.198 373.233 138.235 373.604C138.254 373.778 138.235 373.955 138.181 374.121C138.126 374.288 138.036 374.441 137.917 374.57C137.799 374.699 137.654 374.801 137.492 374.87C137.331 374.939 137.157 374.972 136.981 374.968Z" fill="#6CC0A7"/>
<path d="M189.639 354.2H165.23C164.857 354.194 164.499 354.052 164.224 353.801C163.948 353.55 163.774 353.207 163.734 352.836C163.715 352.661 163.734 352.484 163.788 352.317C163.843 352.15 163.933 351.996 164.051 351.866C164.17 351.736 164.314 351.633 164.476 351.563C164.637 351.493 164.812 351.458 164.988 351.461H189.397C189.77 351.467 190.128 351.611 190.402 351.865C190.676 352.119 190.846 352.464 190.882 352.836C190.902 353.01 190.885 353.186 190.832 353.353C190.778 353.519 190.689 353.672 190.572 353.802C190.454 353.931 190.309 354.034 190.148 354.102C189.987 354.171 189.814 354.204 189.639 354.2Z" fill="#6CC0A7"/>
<path d="M185.611 358.6H165.613C165.24 358.596 164.883 358.455 164.608 358.203C164.334 357.951 164.163 357.607 164.128 357.236C164.107 357.062 164.124 356.886 164.178 356.719C164.231 356.553 164.32 356.399 164.438 356.27C164.556 356.141 164.7 356.038 164.861 355.969C165.022 355.901 165.196 355.867 165.371 355.872H185.369C185.741 355.876 186.099 356.017 186.373 356.269C186.647 356.521 186.818 356.865 186.854 357.236C186.874 357.41 186.857 357.586 186.804 357.752C186.75 357.919 186.661 358.072 186.544 358.202C186.426 358.331 186.281 358.433 186.12 358.502C185.959 358.571 185.786 358.604 185.611 358.6Z" fill="#6CC0A7"/>
<path d="M191.539 348.689H162.961L161.795 335.445H190.384L191.539 348.689Z" fill="#6CC0A7"/>
<path d="M193.871 375.287H165.282L164.127 362.043H192.716L193.871 375.287Z" fill="#6CC0A7"/>
<g opacity="0.9">
<path d="M110.92 313.797H93.0562L92.4512 306.856H110.315L110.92 313.797Z" fill="white"/>
<path d="M149.434 309.375H138.247L138.027 306.856H149.214L149.434 309.375Z" fill="white"/>
<path d="M162.884 309.375H151.697L151.477 306.856H162.664L162.884 309.375Z" fill="white"/>
<path d="M176.339 309.375H165.152L164.932 306.856H176.119L176.339 309.375Z" fill="white"/>
<path d="M189.792 309.375H178.605L178.385 306.856H189.572L189.792 309.375Z" fill="white"/>
<path d="M191.826 332.717H94.7177L93.3867 317.581H190.506L191.826 332.717Z" fill="white"/>
<path d="M157.627 364.661H97.5122L94.9492 335.445H155.075L157.627 364.661Z" fill="white"/>
<path d="M141.018 370.546H99.3937C99.0195 370.545 98.6591 370.405 98.3826 370.152C98.1061 369.9 97.9332 369.554 97.8977 369.182C97.879 369.008 97.8974 368.833 97.9515 368.667C98.0057 368.501 98.0945 368.349 98.212 368.22C98.3295 368.091 98.4731 367.988 98.6332 367.919C98.7933 367.85 98.9663 367.815 99.1407 367.818H140.798C141.169 367.826 141.524 367.969 141.797 368.22C142.07 368.471 142.243 368.813 142.283 369.182C142.302 369.357 142.283 369.535 142.227 369.702C142.172 369.869 142.081 370.023 141.961 370.152C141.841 370.282 141.695 370.384 141.532 370.452C141.369 370.519 141.194 370.552 141.018 370.546Z" fill="white"/>
<path d="M136.981 374.968H99.7791C99.4076 374.962 99.0512 374.819 98.7775 374.568C98.5038 374.317 98.3318 373.973 98.2941 373.604C98.2756 373.43 98.2939 373.254 98.348 373.087C98.4021 372.921 98.4907 372.768 98.608 372.638C98.7254 372.508 98.8688 372.405 99.0289 372.334C99.189 372.264 99.3622 372.228 99.5371 372.229H136.75C137.123 372.238 137.479 372.382 137.753 372.635C138.026 372.889 138.198 373.233 138.235 373.604C138.254 373.778 138.235 373.955 138.181 374.121C138.126 374.288 138.036 374.441 137.917 374.57C137.799 374.699 137.654 374.801 137.492 374.87C137.331 374.939 137.156 374.972 136.981 374.968Z" fill="white"/>
<path d="M189.635 354.2H165.226C164.853 354.194 164.495 354.052 164.22 353.801C163.944 353.55 163.77 353.206 163.73 352.836C163.711 352.661 163.73 352.484 163.784 352.317C163.839 352.15 163.929 351.996 164.047 351.866C164.166 351.736 164.311 351.633 164.472 351.563C164.633 351.493 164.808 351.458 164.984 351.461H189.393C189.766 351.467 190.124 351.611 190.398 351.865C190.672 352.118 190.843 352.464 190.878 352.836C190.898 353.01 190.881 353.186 190.828 353.352C190.774 353.519 190.685 353.672 190.568 353.802C190.45 353.931 190.305 354.033 190.144 354.102C189.984 354.171 189.81 354.204 189.635 354.2Z" fill="white"/>
<path d="M185.611 358.6H165.613C165.24 358.596 164.883 358.455 164.608 358.203C164.334 357.951 164.163 357.607 164.128 357.236C164.107 357.062 164.124 356.886 164.178 356.719C164.231 356.553 164.32 356.399 164.438 356.27C164.556 356.141 164.7 356.038 164.861 355.969C165.022 355.901 165.196 355.867 165.371 355.872H185.369C185.741 355.876 186.099 356.017 186.373 356.269C186.647 356.521 186.818 356.865 186.854 357.236C186.874 357.41 186.857 357.586 186.804 357.752C186.75 357.919 186.661 358.072 186.544 358.202C186.426 358.331 186.281 358.433 186.12 358.502C185.959 358.571 185.786 358.604 185.611 358.6Z" fill="white"/>
<path d="M191.539 348.689H162.961L161.795 335.445H190.384L191.539 348.689Z" fill="white"/>
<path d="M193.871 375.287H165.282L164.127 362.043H192.716L193.871 375.287Z" fill="white"/>
</g>
<path d="M160.049 353.199H139.369C137.93 353.172 136.55 352.618 135.49 351.644C134.43 350.669 133.764 349.34 133.616 347.908L131.801 327.228C131.73 326.527 131.807 325.819 132.029 325.151C132.25 324.482 132.611 323.868 133.087 323.348C133.563 322.829 134.143 322.416 134.79 322.137C135.436 321.857 136.135 321.718 136.839 321.728H157.519C158.959 321.755 160.339 322.309 161.398 323.283C162.458 324.258 163.125 325.587 163.272 327.019L165.087 347.699C165.159 348.4 165.081 349.108 164.859 349.776C164.638 350.445 164.277 351.059 163.801 351.579C163.326 352.098 162.745 352.511 162.099 352.79C161.452 353.07 160.753 353.209 160.049 353.199ZM136.839 324.192C136.479 324.188 136.123 324.258 135.792 324.398C135.46 324.538 135.161 324.745 134.914 325.006C134.672 325.275 134.49 325.593 134.38 325.938C134.27 326.283 134.234 326.648 134.276 327.008L136.08 347.688C136.163 348.51 136.545 349.273 137.154 349.833C137.762 350.392 138.554 350.709 139.38 350.724H160.06C160.422 350.734 160.782 350.667 161.115 350.526C161.449 350.384 161.748 350.173 161.992 349.906C162.236 349.638 162.42 349.322 162.531 348.977C162.642 348.632 162.677 348.268 162.634 347.908L160.819 327.228C160.736 326.406 160.354 325.643 159.746 325.083C159.138 324.524 158.345 324.207 157.519 324.192H136.839Z" fill="#6CC0A7"/>
<g opacity="0.5">
<path d="M160.049 353.199H139.369C137.93 353.172 136.55 352.618 135.49 351.644C134.43 350.669 133.764 349.34 133.616 347.908L131.801 327.228C131.73 326.527 131.807 325.819 132.029 325.15C132.25 324.482 132.611 323.868 133.087 323.348C133.563 322.829 134.143 322.416 134.79 322.137C135.436 321.857 136.135 321.718 136.839 321.728H157.519C158.959 321.755 160.339 322.308 161.398 323.283C162.458 324.258 163.125 325.587 163.272 327.019L165.087 347.699C165.159 348.4 165.081 349.108 164.859 349.776C164.638 350.445 164.277 351.059 163.801 351.579C163.326 352.098 162.745 352.511 162.099 352.79C161.452 353.069 160.753 353.209 160.049 353.199ZM136.839 324.192C136.479 324.187 136.123 324.257 135.792 324.398C135.46 324.538 135.161 324.745 134.914 325.006C134.672 325.275 134.49 325.593 134.38 325.938C134.27 326.283 134.234 326.648 134.276 327.008L136.08 347.688C136.163 348.51 136.545 349.273 137.154 349.833C137.762 350.392 138.554 350.709 139.38 350.724H160.06C160.422 350.734 160.782 350.667 161.115 350.525C161.449 350.384 161.748 350.173 161.992 349.905C162.236 349.638 162.42 349.321 162.531 348.977C162.642 348.632 162.677 348.267 162.634 347.908L160.819 327.228C160.736 326.406 160.354 325.643 159.746 325.083C159.138 324.524 158.345 324.207 157.519 324.192H136.839Z" fill="white"/>
</g>
<path d="M144.152 346.071L128.367 331.562C127.838 331.071 127.524 330.392 127.493 329.671C127.462 328.95 127.717 328.246 128.202 327.712C128.443 327.449 128.734 327.236 129.057 327.086C129.381 326.935 129.731 326.85 130.087 326.834C130.444 326.819 130.8 326.874 131.135 326.996C131.47 327.119 131.778 327.306 132.041 327.547L143.811 338.371L166.603 313.379C167.09 312.846 167.77 312.528 168.491 312.495C169.213 312.462 169.919 312.716 170.453 313.203C170.986 313.69 171.304 314.37 171.337 315.091C171.37 315.813 171.115 316.519 170.629 317.053L144.152 346.071Z" fill="#E1316B"/>
<g opacity="0.2">
<path d="M144.156 346.071L128.371 331.562C127.842 331.071 127.528 330.392 127.497 329.671C127.466 328.95 127.721 328.246 128.206 327.712C128.447 327.449 128.738 327.236 129.061 327.086C129.385 326.935 129.735 326.85 130.091 326.834C130.448 326.819 130.804 326.874 131.139 326.996C131.474 327.119 131.782 327.306 132.045 327.547L143.815 338.371L166.607 313.379C167.094 312.846 167.774 312.528 168.495 312.495C169.217 312.462 169.923 312.716 170.457 313.203C170.99 313.69 171.308 314.37 171.341 315.091C171.374 315.813 171.119 316.519 170.633 317.053L144.156 346.071Z" fill="#EB7446"/>
</g>
<path d="M411.008 309.21H424.054C427.361 309.205 430.545 307.959 432.978 305.718C435.41 303.477 436.912 300.405 437.188 297.11L439.564 267.014L434.614 266.618L432.238 296.714C432.067 298.769 431.132 300.686 429.616 302.085C428.101 303.484 426.116 304.264 424.054 304.271H411.008V309.21Z" fill="#263238"/>
<path opacity="0.3" d="M411.008 309.21H424.054C427.361 309.205 430.545 307.959 432.978 305.718C435.41 303.477 436.912 300.405 437.188 297.11L439.564 267.014L434.614 266.618L432.238 296.714C432.067 298.769 431.132 300.686 429.616 302.085C428.101 303.484 426.116 304.264 424.054 304.271H411.008V309.21Z" fill="white"/>
<path opacity="0.2" d="M429.136 302.5L428.366 306.031C428.125 307.075 427.66 308.055 427.002 308.902C426.036 309.131 425.047 309.249 424.054 309.254H411.008V304.282H424.054C425.901 304.281 427.693 303.652 429.136 302.5Z" fill="black"/>
<path d="M417.598 270.193C416.104 270.04 414.731 269.303 413.778 268.144C412.824 266.984 412.366 265.495 412.505 264L416.454 225.5C416.529 224.755 416.751 224.032 417.106 223.373C417.461 222.714 417.942 222.132 418.522 221.659C419.103 221.186 419.77 220.832 420.487 220.617C421.205 220.402 421.957 220.331 422.702 220.407H460.432C460.929 220.456 461.411 220.603 461.851 220.84C462.29 221.077 462.679 221.398 462.994 221.786C463.309 222.173 463.544 222.619 463.686 223.098C463.827 223.577 463.873 224.079 463.82 224.576L459.497 266.871C459.394 267.874 458.897 268.796 458.116 269.433C457.334 270.07 456.331 270.371 455.328 270.27L417.598 270.193Z" fill="black"/>
<path opacity="0.3" d="M417.598 270.193C416.104 270.04 414.731 269.303 413.778 268.144C412.824 266.984 412.366 265.495 412.505 264L416.454 225.5C416.529 224.755 416.751 224.032 417.106 223.373C417.461 222.714 417.942 222.132 418.522 221.659C419.103 221.186 419.77 220.832 420.487 220.617C421.205 220.402 421.957 220.331 422.702 220.407H460.432C460.929 220.456 461.411 220.603 461.851 220.84C462.29 221.077 462.679 221.398 462.994 221.786C463.309 222.173 463.544 222.619 463.686 223.098C463.827 223.577 463.873 224.079 463.82 224.576L459.497 266.871C459.394 267.874 458.897 268.796 458.116 269.433C457.334 270.07 456.331 270.371 455.328 270.27L417.598 270.193Z" fill="black"/>
<path d="M459.499 266.794L463.833 224.499C463.934 223.495 463.633 222.493 462.996 221.711C462.358 220.929 461.437 220.433 460.434 220.33C459.689 220.254 458.936 220.325 458.219 220.54C457.502 220.755 456.835 221.109 456.254 221.582C455.674 222.055 455.193 222.637 454.838 223.296C454.483 223.955 454.261 224.678 454.186 225.423L450.237 263.923C450.16 264.667 450.232 265.42 450.447 266.137C450.661 266.854 451.015 267.522 451.488 268.102C451.961 268.682 452.544 269.164 453.203 269.519C453.862 269.874 454.585 270.095 455.33 270.171C456.33 270.272 457.329 269.974 458.11 269.342C458.891 268.709 459.39 267.793 459.499 266.794Z" fill="black"/>
<path d="M416.829 382.14L416.488 381.117C416.279 380.477 415.872 379.919 415.327 379.524C414.782 379.129 414.125 378.916 413.452 378.917H378.175C377.445 378.92 376.739 379.171 376.171 379.628C375.603 380.086 375.208 380.724 375.051 381.436L374.963 381.832C374.814 382.524 374.433 383.144 373.882 383.588C373.331 384.032 372.645 384.275 371.938 384.274C371.473 384.275 371.013 384.172 370.594 383.971C370.174 383.771 369.805 383.479 369.513 383.117C369.222 382.754 369.016 382.331 368.91 381.878C368.804 381.426 368.801 380.955 368.902 380.501L368.99 380.094C369.453 378.002 370.615 376.131 372.285 374.789C373.955 373.447 376.032 372.715 378.175 372.713H413.452C415.434 372.71 417.366 373.332 418.974 374.492C420.582 375.651 421.783 377.288 422.406 379.17L422.747 380.193C422.899 380.659 422.939 381.156 422.864 381.641C422.788 382.126 422.599 382.586 422.311 382.984C422.024 383.382 421.646 383.706 421.21 383.93C420.773 384.154 420.289 384.272 419.799 384.274C419.141 384.279 418.499 384.075 417.966 383.691C417.432 383.308 417.034 382.764 416.829 382.14Z" fill="#263238"/>
<path opacity="0.3" d="M416.829 382.14L416.488 381.117C416.279 380.477 415.872 379.919 415.327 379.524C414.782 379.129 414.125 378.916 413.452 378.917H378.175C377.445 378.92 376.739 379.171 376.171 379.628C375.603 380.086 375.208 380.724 375.051 381.436L374.963 381.832C374.814 382.524 374.433 383.144 373.882 383.588C373.331 384.032 372.645 384.275 371.938 384.274C371.473 384.275 371.013 384.172 370.594 383.971C370.174 383.771 369.805 383.479 369.513 383.117C369.222 382.754 369.016 382.331 368.91 381.878C368.804 381.426 368.801 380.955 368.902 380.501L368.99 380.094C369.453 378.002 370.615 376.131 372.285 374.789C373.955 373.447 376.032 372.715 378.175 372.713H413.452C415.434 372.71 417.366 373.332 418.974 374.492C420.582 375.651 421.783 377.288 422.406 379.17L422.747 380.193C422.899 380.659 422.939 381.156 422.864 381.641C422.788 382.126 422.599 382.586 422.311 382.984C422.024 383.382 421.646 383.706 421.21 383.93C420.773 384.154 420.289 384.272 419.799 384.274C419.141 384.279 418.499 384.075 417.966 383.691C417.432 383.308 417.034 382.764 416.829 382.14Z" fill="white"/>
<path opacity="0.2" d="M401.551 372.713H390.639V378.917H401.551V372.713Z" fill="black"/>
<path d="M396.094 383.57C396.917 383.57 397.706 383.243 398.288 382.661C398.869 382.079 399.196 381.29 399.196 380.468V297.968H392.992V380.468C392.992 381.29 393.319 382.079 393.901 382.661C394.482 383.243 395.271 383.57 396.094 383.57Z" fill="#263238"/>
<path opacity="0.3" d="M396.094 383.57C396.917 383.57 397.706 383.243 398.288 382.661C398.869 382.079 399.196 381.29 399.196 380.468V297.968H392.992V380.468C392.992 381.29 393.319 382.079 393.901 382.661C394.482 383.243 395.271 383.57 396.094 383.57Z" fill="white"/>
<path d="M391.746 389.202C391.746 390.061 392.001 390.901 392.478 391.616C392.956 392.33 393.634 392.887 394.428 393.216C395.222 393.545 396.096 393.631 396.939 393.463C397.782 393.296 398.556 392.882 399.163 392.274C399.771 391.667 400.185 390.892 400.353 390.049C400.52 389.207 400.434 388.333 400.105 387.539C399.776 386.745 399.22 386.067 398.505 385.589C397.791 385.112 396.95 384.857 396.091 384.857C394.943 384.871 393.846 385.333 393.034 386.145C392.223 386.957 391.76 388.054 391.746 389.202Z" fill="#263238"/>
<path d="M418.537 389.202C418.537 390.061 418.792 390.901 419.269 391.616C419.747 392.33 420.425 392.887 421.219 393.216C422.013 393.545 422.887 393.631 423.73 393.463C424.573 393.296 425.347 392.882 425.954 392.274C426.562 391.667 426.976 390.892 427.144 390.049C427.311 389.207 427.225 388.333 426.896 387.539C426.567 386.745 426.011 386.067 425.296 385.589C424.582 385.112 423.741 384.857 422.882 384.857C421.734 384.871 420.637 385.333 419.826 386.145C419.014 386.957 418.551 388.054 418.537 389.202Z" fill="#263238"/>
<path d="M364.488 389.202C364.488 390.062 364.743 390.902 365.221 391.617C365.699 392.332 366.378 392.889 367.173 393.217C367.968 393.546 368.842 393.631 369.685 393.463C370.528 393.294 371.302 392.879 371.91 392.27C372.517 391.662 372.93 390.886 373.096 390.043C373.263 389.199 373.175 388.325 372.844 387.531C372.514 386.738 371.955 386.06 371.239 385.584C370.523 385.108 369.682 384.855 368.822 384.857C368.252 384.857 367.688 384.969 367.161 385.188C366.635 385.406 366.156 385.726 365.754 386.13C365.351 386.534 365.032 387.013 364.815 387.54C364.598 388.067 364.487 388.632 364.488 389.202Z" fill="#263238"/>
<path opacity="0.2" d="M399.196 302.808H392.992V317.482H399.196V302.808Z" fill="black"/>
<path d="M375.965 309.87H416.907C418.573 309.871 420.19 309.302 421.488 308.257C422.787 307.213 423.689 305.756 424.046 304.128L425.267 298.628H366.967L369.024 304.887C369.514 306.339 370.447 307.601 371.693 308.495C372.938 309.389 374.432 309.87 375.965 309.87Z" fill="#263238"/>
<path opacity="0.3" d="M375.965 309.87H416.907C418.573 309.871 420.19 309.302 421.488 308.257C422.787 307.213 423.689 305.756 424.046 304.128L425.267 298.628H366.967L369.024 304.887C369.514 306.339 370.447 307.601 371.693 308.495C372.938 309.389 374.432 309.87 375.965 309.87Z" fill="white"/>
<path d="M424.215 302.94H360.525C359.559 302.94 358.633 302.556 357.95 301.873C357.267 301.19 356.884 300.264 356.884 299.299V298.463C356.884 297.004 357.463 295.605 358.495 294.574C359.526 293.542 360.925 292.963 362.384 292.963H422.389C423.847 292.963 425.246 293.542 426.278 294.574C427.309 295.605 427.889 297.004 427.889 298.463V299.299C427.889 299.78 427.793 300.256 427.608 300.7C427.423 301.144 427.152 301.546 426.811 301.885C426.469 302.224 426.064 302.491 425.618 302.672C425.173 302.853 424.696 302.944 424.215 302.94Z" fill="black"/>
<path opacity="0.3" d="M424.215 302.94H360.525C359.559 302.94 358.633 302.556 357.95 301.873C357.267 301.19 356.884 300.264 356.884 299.299V298.463C356.884 297.004 357.463 295.605 358.495 294.574C359.526 293.542 360.925 292.963 362.384 292.963H422.389C423.847 292.963 425.246 293.542 426.278 294.574C427.309 295.605 427.889 297.004 427.889 298.463V299.299C427.889 299.78 427.793 300.256 427.608 300.7C427.423 301.144 427.152 301.546 426.811 301.885C426.469 302.224 426.064 302.491 425.618 302.672C425.173 302.853 424.696 302.944 424.215 302.94Z" fill="black"/>
<path d="M436.627 302.94H397.753C396.788 302.94 395.862 302.556 395.179 301.873C394.496 301.19 394.112 300.264 394.112 299.299V298.463C394.112 297.004 394.692 295.605 395.723 294.574C396.755 293.542 398.154 292.963 399.612 292.963H434.812C436.271 292.963 437.67 293.542 438.702 294.574C439.733 295.605 440.312 297.004 440.312 298.463V299.299C440.313 299.781 440.217 300.258 440.031 300.702C439.845 301.147 439.573 301.55 439.231 301.889C438.888 302.228 438.481 302.495 438.034 302.675C437.588 302.856 437.109 302.945 436.627 302.94Z" fill="black"/>
<path d="M335.476 364.573L331.813 382.228L324.014 381.172L325.62 362.868L335.476 364.573Z" fill="#FF8B7B"/>
<path d="M323.475 380.281L332.946 380.941C333.106 380.949 333.256 381.02 333.365 381.137C333.473 381.254 333.532 381.408 333.529 381.568L333.463 389.191C333.441 389.586 333.262 389.956 332.968 390.22C332.673 390.484 332.285 390.62 331.89 390.599C328.59 390.313 327.028 390.005 322.859 389.686C319.146 389.565 315.447 389.168 311.793 388.498C308.284 387.684 309.219 384.252 310.759 384.285C314.755 384.062 318.622 382.799 321.979 380.622C322.426 380.345 322.953 380.225 323.475 380.281Z" fill="#263238"/>
<path d="M318.83 380.985C318.707 380.833 318.627 380.651 318.598 380.457C318.569 380.264 318.592 380.066 318.665 379.885C318.693 379.761 318.753 379.647 318.837 379.553C318.922 379.459 319.029 379.387 319.149 379.346C320.249 379.016 322.449 380.831 322.757 381.04C322.802 381.104 322.821 381.182 322.812 381.26C322.801 381.297 322.78 381.331 322.751 381.356C322.722 381.381 322.685 381.398 322.647 381.403C321.899 381.533 321.139 381.581 320.381 381.546C319.813 381.553 319.262 381.354 318.83 380.985ZM319.27 379.742C319.211 379.763 319.158 379.798 319.116 379.844C319.074 379.89 319.044 379.945 319.028 380.006C318.979 380.124 318.962 380.253 318.977 380.38C318.993 380.507 319.04 380.628 319.116 380.732C319.49 381.15 320.59 381.271 322.119 381.084C321.184 380.38 319.831 379.566 319.27 379.742Z" fill="#263238"/>
<path d="M322.497 381.359C321.705 380.798 320.572 378.928 320.814 378.004C320.863 377.841 320.963 377.699 321.101 377.6C321.238 377.501 321.404 377.449 321.573 377.454C321.726 377.448 321.879 377.475 322.021 377.532C322.163 377.589 322.291 377.674 322.398 377.784C323.179 378.686 322.816 381.15 322.816 381.238C322.796 381.299 322.753 381.35 322.695 381.381C322.683 381.386 322.67 381.389 322.657 381.389C322.644 381.389 322.631 381.386 322.618 381.381C322.598 381.386 322.576 381.386 322.556 381.382C322.535 381.379 322.515 381.371 322.497 381.359ZM321.595 377.894C321.309 377.894 321.199 378.037 321.199 378.158C321.276 379.176 321.722 380.13 322.453 380.842C322.63 379.914 322.502 378.953 322.09 378.103C322.041 378.042 321.979 377.992 321.909 377.956C321.839 377.92 321.762 377.899 321.683 377.894H321.595Z" fill="#263238"/>
<path opacity="0.2" d="M325.622 362.868L335.478 364.573L333.63 373.494L324.775 372.57L325.622 362.868Z" fill="black"/>
<path d="M401.148 248.875C401.148 248.875 400.136 265.375 395.736 266.134C391.336 266.893 335.335 278.3 331.298 291.5C327.261 304.7 323.939 370.524 323.939 370.524L335.148 371.536C335.148 371.536 350.548 315.7 349.811 300.85C349.811 300.85 398.761 300.85 415.085 291.863C431.409 282.876 423.555 250.811 423.555 250.811L401.148 248.875Z" fill="#109CD4"/>
<path opacity="0.5" d="M401.148 248.875C401.148 248.875 400.136 265.375 395.736 266.134C391.336 266.893 335.335 278.3 331.298 291.5C327.261 304.7 323.939 370.524 323.939 370.524L335.148 371.536C335.148 371.536 350.548 315.7 349.811 300.85C349.811 300.85 398.761 300.85 415.085 291.863C431.409 282.876 423.555 250.811 423.555 250.811L401.148 248.875Z" fill="white"/>
<path opacity="0.2" d="M351.193 300.861C353.25 300.861 357.441 300.773 362.798 300.553L369.838 295.053L411.088 286.737L412.65 273.46C412.65 273.46 372.038 276.287 361.148 282.337C352.986 286.924 351.446 296.395 351.193 300.861Z" fill="black"/>
<path d="M361.739 368.038L358.098 385.968L350.266 385.187L351.828 366.674L361.739 368.038Z" fill="#FF8B7B"/>
<path d="M349.581 382.877L359.008 383.911C359.087 383.914 359.164 383.932 359.235 383.966C359.306 383.999 359.37 384.046 359.422 384.105C359.475 384.163 359.515 384.232 359.54 384.306C359.565 384.381 359.575 384.459 359.569 384.538L359.228 392.172C359.203 392.567 359.022 392.936 358.725 393.198C358.428 393.459 358.039 393.593 357.644 393.569C354.344 393.162 352.837 392.788 348.646 392.304C344.948 392.058 341.272 391.547 337.646 390.775C334.225 389.829 335.237 386.43 336.766 386.518C340.396 386.727 345.566 384.89 348.151 383.218C348.579 382.954 349.08 382.834 349.581 382.877Z" fill="#263238"/>
<path d="M344.968 383.449C344.835 383.287 344.75 383.09 344.725 382.881C344.699 382.673 344.734 382.461 344.825 382.272C344.863 382.152 344.928 382.042 345.016 381.952C345.104 381.862 345.212 381.795 345.331 381.755C346.431 381.513 348.631 383.372 348.862 383.592C348.882 383.625 348.892 383.663 348.892 383.702C348.892 383.74 348.882 383.778 348.862 383.812C348.855 383.849 348.833 383.881 348.803 383.904C348.773 383.926 348.735 383.936 348.697 383.933C347.944 384.041 347.18 384.067 346.42 384.01C345.887 383.992 345.375 383.794 344.968 383.449ZM345.375 382.195C345.316 382.208 345.262 382.238 345.219 382.281C345.176 382.323 345.147 382.378 345.133 382.437C345.079 382.554 345.058 382.684 345.074 382.812C345.089 382.941 345.141 383.062 345.221 383.163C345.562 383.603 346.673 383.768 348.213 383.636C347.289 382.899 346.013 382.019 345.397 382.195H345.375Z" fill="#263238"/>
<path d="M348.587 383.9C347.784 383.35 346.717 381.425 347.003 380.523C347.052 380.359 347.157 380.216 347.299 380.12C347.442 380.024 347.613 379.98 347.784 379.995C347.936 379.989 348.088 380.019 348.228 380.082C348.367 380.145 348.49 380.239 348.587 380.358C349.346 381.282 348.862 383.746 348.873 383.823C348.864 383.854 348.849 383.883 348.828 383.908C348.807 383.933 348.781 383.952 348.752 383.966C348.741 383.971 348.73 383.973 348.719 383.973C348.707 383.973 348.696 383.971 348.686 383.966C348.665 383.963 348.646 383.955 348.629 383.944C348.612 383.932 348.597 383.917 348.587 383.9ZM347.784 380.49C347.509 380.49 347.366 380.622 347.377 380.743C347.431 381.767 347.848 382.738 348.554 383.482C348.754 382.556 348.662 381.591 348.29 380.721C348.187 380.596 348.042 380.513 347.883 380.49H347.784Z" fill="#263238"/>
<path opacity="0.2" d="M361.577 368.742L360.147 375.804L351.193 374.154L351.82 366.696L361.577 368.742Z" fill="black"/>
<path d="M418.138 196.614C409.195 195.437 416.147 192.456 416.147 192.456C422.219 191.356 422.582 186.956 422.043 182.809L433.164 174.68C431.492 179.905 429.303 189.508 432.581 193.193C432.581 193.193 434.836 197.945 420.899 196.889L418.138 196.614Z" fill="#FF8B7B"/>
<path opacity="0.2" d="M428.637 177.991L422.037 182.798C422.175 183.77 422.227 184.753 422.191 185.735C424.49 185.504 427.878 183.183 428.395 180.84C428.648 179.913 428.73 178.947 428.637 177.991Z" fill="black"/>
<path d="M438.159 164.274C436.168 172.733 435.508 176.374 430.459 180.224C422.858 186.054 412.936 182.347 412.364 173.624C411.858 165.759 415.191 153.241 424.112 150.81C426.008 150.229 428.025 150.164 429.954 150.623C431.883 151.082 433.655 152.047 435.087 153.419C436.518 154.792 437.558 156.521 438.098 158.429C438.638 160.337 438.659 162.355 438.159 164.274Z" fill="#FF8B7B"/>
<path d="M424.6 165.088C424.457 165.803 423.973 166.342 423.5 166.287C423.027 166.232 422.785 165.605 422.917 164.89C423.049 164.175 423.533 163.625 424.017 163.68C424.501 163.735 424.71 164.362 424.6 165.088Z" fill="#263238"/>
<path d="M415.872 164.175C415.74 164.89 415.256 165.429 414.772 165.374C414.288 165.319 414.046 164.692 414.178 163.977C414.31 163.262 414.805 162.723 415.278 162.778C415.751 162.833 416.004 163.46 415.872 164.175Z" fill="#263238"/>
<path d="M415.478 162.8L413.883 162.096C413.883 162.096 414.499 163.592 415.478 162.8Z" fill="#263238"/>
<path d="M418.072 165.638C417.125 167.203 415.987 168.644 414.684 169.928C415.002 170.232 415.385 170.459 415.805 170.592C416.224 170.726 416.668 170.762 417.104 170.698L418.072 165.638Z" fill="#E65358"/>
<path d="M420.658 173.8C420.259 173.838 419.858 173.838 419.459 173.8C419.433 173.796 419.408 173.786 419.385 173.773C419.363 173.759 419.343 173.741 419.328 173.719C419.313 173.697 419.302 173.673 419.296 173.647C419.29 173.621 419.289 173.595 419.294 173.569C419.297 173.54 419.305 173.512 419.319 173.487C419.333 173.462 419.352 173.44 419.375 173.422C419.397 173.405 419.423 173.392 419.451 173.385C419.479 173.378 419.508 173.377 419.536 173.382C420.44 173.49 421.356 173.395 422.218 173.104C423.08 172.813 423.867 172.333 424.519 171.699C424.534 171.671 424.556 171.646 424.582 171.628C424.608 171.609 424.637 171.597 424.669 171.592C424.7 171.586 424.733 171.589 424.763 171.598C424.794 171.607 424.822 171.623 424.845 171.645C424.869 171.666 424.887 171.693 424.898 171.723C424.91 171.752 424.914 171.784 424.911 171.816C424.909 171.848 424.899 171.879 424.882 171.906C424.866 171.933 424.843 171.956 424.816 171.974C423.7 173.071 422.221 173.721 420.658 173.8Z" fill="#263238"/>
<path d="M427.183 161.315C427.069 161.306 426.963 161.255 426.886 161.172C426.568 160.766 426.154 160.445 425.682 160.238C425.21 160.03 424.694 159.943 424.18 159.984C424.126 159.993 424.071 159.991 424.018 159.979C423.965 159.966 423.915 159.942 423.872 159.909C423.828 159.876 423.792 159.834 423.766 159.786C423.739 159.739 423.723 159.686 423.718 159.632C423.711 159.518 423.746 159.405 423.817 159.316C423.888 159.227 423.99 159.167 424.103 159.148C424.754 159.08 425.412 159.177 426.016 159.431C426.619 159.685 427.149 160.087 427.557 160.6C427.624 160.691 427.654 160.805 427.64 160.918C427.626 161.031 427.568 161.134 427.48 161.205C427.397 161.276 427.292 161.315 427.183 161.315Z" fill="#263238"/>
<path d="M414.104 159.94C414.052 159.942 413.999 159.933 413.95 159.914C413.901 159.895 413.856 159.867 413.818 159.83C413.778 159.792 413.745 159.746 413.723 159.695C413.701 159.643 413.689 159.588 413.689 159.533C413.689 159.477 413.701 159.422 413.723 159.371C413.745 159.32 413.778 159.274 413.818 159.236C414.28 158.727 414.852 158.332 415.491 158.08C416.13 157.828 416.819 157.727 417.503 157.784C417.557 157.793 417.608 157.813 417.654 157.842C417.699 157.872 417.738 157.911 417.768 157.956C417.798 158.002 417.818 158.053 417.828 158.106C417.837 158.16 417.835 158.215 417.822 158.268C417.796 158.38 417.728 158.479 417.632 158.544C417.537 158.61 417.42 158.636 417.305 158.62C416.764 158.584 416.221 158.671 415.718 158.875C415.215 159.079 414.765 159.394 414.401 159.797C414.324 159.88 414.218 159.931 414.104 159.94Z" fill="#263238"/>
<path d="M424.181 163.746L422.586 163.053C422.586 163.053 423.191 164.505 424.181 163.746Z" fill="#263238"/>
<path d="M364.978 235.202H365.462C366.397 235.136 367.662 235.103 368.674 234.982C369.686 234.861 370.874 234.718 371.875 234.52C373.779 234.199 375.63 233.618 377.375 232.793C378.101 232.446 378.787 232.022 379.421 231.528C379.701 231.304 379.969 231.065 380.224 230.813C380.356 230.696 380.478 230.567 380.587 230.428L381.027 229.966L383.227 227.557L385.427 225.126C388.276 221.826 390.927 218.449 393.534 215.006C394.821 213.279 396.064 211.53 397.285 209.781C397.89 208.901 398.484 208.021 399.056 207.141C399.628 206.261 400.233 205.337 400.684 204.589L400.761 204.457C401.663 203.148 402.996 202.195 404.527 201.765C406.058 201.335 407.691 201.455 409.143 202.103C412.278 203.456 413.543 206.756 412.003 209.473C411.343 210.573 410.793 211.574 410.144 212.575C409.495 213.576 408.868 214.522 408.197 215.479C406.899 217.404 405.502 219.274 404.061 221.1C401.15 224.798 398.032 228.327 394.722 231.671C393.061 233.365 391.312 234.971 389.552 236.61C389.365 236.786 389.046 237.05 388.727 237.314C388.419 237.578 388.095 237.824 387.759 238.051C387.102 238.526 386.411 238.953 385.691 239.327C384.29 240.073 382.816 240.67 381.291 241.109C378.404 241.89 375.411 242.202 372.425 242.033C369.62 241.875 366.845 241.369 364.164 240.526C363.635 240.371 363.162 240.067 362.803 239.649C362.444 239.231 362.214 238.718 362.14 238.172C362.128 237.79 362.193 237.409 362.33 237.052C362.466 236.695 362.673 236.369 362.937 236.093C363.201 235.816 363.518 235.595 363.868 235.442C364.218 235.289 364.596 235.208 364.978 235.202Z" fill="#FF8B7B"/>
<path d="M404.797 197.274C404.797 197.274 402.256 197.274 392.697 213.664C392.697 213.664 396.624 223.256 406.843 223.751C406.799 223.751 426.797 196.174 404.797 197.274Z" fill="#F09136"/>
<path opacity="0.5" d="M401.983 202.4L407.285 201.135L413.511 204.435L414.754 207.537C413.148 214.984 406.801 223.74 406.801 223.74C402.845 223.559 399.11 221.861 396.373 218.999C398.696 213.629 400.572 208.077 401.983 202.4Z" fill="black"/>
<path d="M355.378 233.53L358.282 232.111C358.834 231.846 359.435 231.7 360.047 231.681C360.659 231.662 361.268 231.771 361.835 232.001L367.126 234.201C368.124 234.575 369.014 235.19 369.718 235.99C370.422 236.79 370.919 237.751 371.163 238.788L371.416 240.031C366.785 242.671 359.536 242.55 359.536 242.55L357.468 242.715C356.664 242.845 355.84 242.659 355.17 242.195C354.499 241.732 354.034 241.027 353.871 240.229L353.442 236.665C353.399 236.006 353.563 235.35 353.91 234.788C354.257 234.226 354.77 233.787 355.378 233.53Z" fill="#FF8B7B"/>
<path d="M411.133 248.875C411.133 248.875 412.321 274.175 407.91 274.934C403.499 275.693 362.909 279.4 358.883 292.6C354.857 305.8 350.424 371.624 350.424 371.624L361.633 373.736C361.633 373.736 379.233 315.7 378.496 300.85C378.496 300.85 423.167 302.17 432.759 292.963C442.351 283.756 440.14 250.8 440.14 250.8L411.133 248.875Z" fill="#263238"/>
<path opacity="0.5" d="M411.133 248.875C411.133 248.875 412.321 274.175 407.91 274.934C403.499 275.693 362.909 279.4 358.883 292.6C354.857 305.8 350.424 371.624 350.424 371.624L361.633 373.736C361.633 373.736 379.233 315.7 378.496 300.85C378.496 300.85 423.167 302.17 432.759 292.963C442.351 283.756 440.14 250.8 440.14 250.8L411.133 248.875Z" fill="#6FC1A6"/>
<path d="M418.237 192.302C417.94 192.5 410.856 197.098 420.096 197.098C429.336 197.098 432.295 193.094 432.295 192.995C435.595 193.479 439.313 194.194 443.416 195.195L440.402 257.158C440.402 257.158 414.431 259.512 399.922 252.956C399.922 252.956 398.063 207.361 402.375 200.156C402.419 200.2 404.564 193.369 418.237 192.302Z" fill="#F09136"/>
<path opacity="0.5" d="M442.87 206.635L441.605 230.736C436.435 213.587 436.6 204.732 436.6 204.732L437.975 201.498L442.87 206.635Z" fill="black"/>
<path d="M472.999 210.649C472.477 210.556 471.94 210.617 471.453 210.827C470.966 211.036 470.551 211.384 470.26 211.826V211.881C468.962 213.773 467.664 215.742 466.311 217.601C464.958 219.46 463.638 221.341 462.241 223.101C461.339 224.201 460.404 225.301 459.48 226.302C459.333 226.45 459.153 226.56 458.955 226.625C458.758 226.689 458.547 226.705 458.342 226.672C458.136 226.638 457.942 226.556 457.774 226.433C457.607 226.309 457.471 226.148 457.379 225.961C455.949 222.969 454.618 219.9 453.353 216.776C452.451 214.488 451.549 212.189 450.702 209.857C449.855 207.525 449.019 205.149 448.26 202.938V202.817C448.016 202.108 447.63 201.457 447.126 200.902C446.621 200.348 446.009 199.902 445.326 199.593C444.643 199.284 443.904 199.118 443.154 199.105C442.405 199.092 441.66 199.232 440.967 199.517C439.701 200.068 438.683 201.065 438.106 202.32C437.53 203.574 437.436 204.996 437.843 206.315C438.602 208.911 439.46 211.265 440.351 213.696C441.242 216.127 442.199 218.624 443.299 221.099C444.399 223.574 445.554 225.895 446.808 228.26C448.062 230.625 449.437 232.935 450.9 235.223L451.087 235.509C451.215 235.71 451.367 235.894 451.538 236.059C452.106 236.641 452.759 237.135 453.474 237.522C454.296 237.964 455.197 238.24 456.125 238.336C457.604 238.475 459.092 238.189 460.415 237.511C461.961 236.691 463.344 235.595 464.496 234.277C466.241 232.27 467.774 230.087 469.072 227.765C470.315 225.565 471.415 223.365 472.427 221.165C473.439 218.965 474.33 216.688 475.133 214.323C475.271 213.942 475.323 213.536 475.287 213.133C475.251 212.729 475.126 212.339 474.923 211.988C474.72 211.638 474.442 211.337 474.109 211.106C473.777 210.874 473.398 210.718 472.999 210.649Z" fill="#FF8B7B"/>
<path d="M458.6 217.063C454.069 221.523 447.964 224.02 441.605 224.015C441.605 224.015 430.495 197.747 440.175 195.019C449.338 192.423 458.6 217.063 458.6 217.063Z" fill="#F09136"/>
<path d="M471.251 202.609L469.117 204.6C468.71 204.957 468.396 205.408 468.204 205.914C468.012 206.421 467.948 206.967 468.017 207.504L468.655 212.564C468.782 213.564 469.149 214.52 469.723 215.349C470.297 216.178 471.063 216.856 471.955 217.327L473.055 217.921C476.817 214.907 478.654 208.868 478.654 208.868L479.38 207.207C479.535 206.869 479.622 206.504 479.636 206.132C479.649 205.761 479.59 205.39 479.46 205.042C479.33 204.693 479.133 204.374 478.879 204.102C478.626 203.83 478.321 203.61 477.983 203.456L474.683 202.004C474.112 201.774 473.487 201.71 472.881 201.816C472.274 201.923 471.71 202.198 471.251 202.609Z" fill="#FF8B7B"/>
<path d="M419.558 267.3L357.331 273.13C356.903 273.198 356.517 273.426 356.252 273.769C355.987 274.111 355.861 274.542 355.902 274.973C355.943 275.405 356.146 275.804 356.471 276.091C356.795 276.378 357.217 276.531 357.65 276.518L419.877 270.677C420.099 270.656 420.314 270.591 420.511 270.487C420.708 270.383 420.882 270.241 421.024 270.069C421.166 269.898 421.273 269.7 421.339 269.487C421.404 269.274 421.427 269.051 421.406 268.829C421.385 268.607 421.321 268.392 421.217 268.195C421.112 267.998 420.97 267.823 420.799 267.682C420.627 267.54 420.429 267.433 420.217 267.367C420.004 267.302 419.78 267.279 419.558 267.3Z" fill="black"/>
<path d="M358.48 275.429L387.201 272.723C387.325 272.71 387.444 272.669 387.548 272.602C387.653 272.535 387.741 272.444 387.804 272.337C387.867 272.23 387.904 272.109 387.912 271.985C387.92 271.861 387.899 271.737 387.85 271.623L373.154 239.591C372.958 239.159 372.632 238.8 372.222 238.563C371.812 238.326 371.337 238.224 370.866 238.271L342.101 240.9C341.978 240.914 341.86 240.957 341.757 241.024C341.653 241.092 341.567 241.183 341.504 241.289C341.441 241.395 341.404 241.515 341.395 241.638C341.386 241.761 341.405 241.885 341.452 242L356.148 274.043C356.339 274.491 356.668 274.867 357.088 275.116C357.507 275.365 357.994 275.475 358.48 275.429Z" fill="black"/>
<path d="M357.5 275.528L386.22 272.8C386.344 272.787 386.463 272.745 386.568 272.678C386.673 272.611 386.761 272.521 386.825 272.414C386.889 272.308 386.927 272.188 386.937 272.064C386.946 271.94 386.927 271.815 386.881 271.7L372.174 239.657C371.975 239.227 371.649 238.87 371.239 238.633C370.829 238.397 370.357 238.293 369.886 238.337L341.11 241.043C340.986 241.055 340.867 241.097 340.762 241.164C340.657 241.231 340.57 241.321 340.506 241.428C340.443 241.536 340.406 241.656 340.398 241.78C340.39 241.904 340.412 242.029 340.461 242.143L355.168 274.175C355.361 274.619 355.692 274.99 356.112 275.234C356.531 275.477 357.017 275.58 357.5 275.528Z" fill="black"/>
<path opacity="0.7" d="M357.5 275.528L386.22 272.8C386.344 272.787 386.463 272.745 386.568 272.678C386.673 272.611 386.761 272.521 386.825 272.414C386.889 272.308 386.927 272.188 386.937 272.064C386.946 271.94 386.927 271.815 386.881 271.7L372.174 239.657C371.975 239.227 371.649 238.87 371.239 238.633C370.829 238.397 370.357 238.293 369.886 238.337L341.11 241.043C340.986 241.055 340.867 241.097 340.762 241.164C340.657 241.231 340.57 241.321 340.506 241.428C340.443 241.536 340.406 241.656 340.398 241.78C340.39 241.904 340.412 242.029 340.461 242.143L355.168 274.175C355.361 274.619 355.692 274.99 356.112 275.234C356.531 275.477 357.017 275.58 357.5 275.528Z" fill="white"/>
<path opacity="0.7" d="M390.059 273.504C389.837 273.525 389.613 273.502 389.4 273.436C389.187 273.371 388.99 273.264 388.818 273.122C388.471 272.835 388.253 272.423 388.211 271.975C388.168 271.527 388.306 271.081 388.592 270.734C388.879 270.388 389.292 270.169 389.74 270.127L419.561 267.3C419.782 267.279 420.006 267.302 420.219 267.367C420.432 267.433 420.63 267.54 420.801 267.682C420.973 267.823 421.115 267.998 421.219 268.195C421.323 268.392 421.388 268.607 421.409 268.829C421.43 269.051 421.407 269.274 421.341 269.487C421.276 269.7 421.169 269.898 421.027 270.069C420.885 270.241 420.71 270.383 420.514 270.487C420.317 270.591 420.101 270.656 419.88 270.677L390.059 273.504Z" fill="white"/>
<path opacity="0.5" d="M394.997 271.734L397.406 271.508L397.332 270.72L394.923 270.946L394.997 271.734Z" fill="black"/>
<path opacity="0.5" d="M391.28 272.084L393.689 271.858L393.615 271.069L391.206 271.295L391.28 272.084Z" fill="black"/>
<path d="M435.52 170.72C433.708 169.158 432.443 167.059 431.909 164.728C431.375 162.397 431.599 159.956 432.55 157.762C430.292 156.743 427.854 156.186 425.378 156.123C419.878 156.123 413.586 157.3 415.269 153.087C415.269 153.087 409.428 145.662 419.372 144.606C419.372 144.606 418.866 135.245 426.896 141.306C426.896 141.306 433.573 133.375 436.895 144.122C436.895 144.122 446.938 138.875 444.32 151.822C444.32 151.822 451.426 151.943 446.938 160.226C446.938 160.226 450.656 165.275 443.275 169.708C443.275 169.708 443.869 176.913 438.49 175.615C438.49 175.615 432.319 184.272 431.472 180.235C430.702 176.484 435.52 170.72 435.52 170.72Z" fill="#263238"/>
<path d="M438.622 172.535C438.236 173.272 437.702 173.922 437.053 174.443C436.403 174.964 435.653 175.344 434.849 175.56C432.836 175.989 432.077 173.679 432.836 171.435C433.529 169.411 435.399 166.749 437.324 167.332C439.249 167.915 439.711 170.577 438.622 172.535Z" fill="#FF8B7B"/>
<path d="M434.322 174.68L432.232 178.497H436.995L434.894 174.68H434.322Z" fill="black"/>
<path opacity="0.2" d="M434.322 174.68L432.232 178.497H436.995L434.894 174.68H434.322Z" fill="black"/>
<path d="M432.232 178.497L434.322 174.68L436.423 178.497H432.232Z" fill="black"/>
<path d="M323.197 371.03L335.451 372.317L336.419 368.83L323.197 367.367V371.03Z" fill="#263238"/>
<path d="M349.811 372.317L361.966 374.385L363.143 370.975L350.042 368.665L349.811 372.317Z" fill="#263238"/>
<path d="M336.964 188.353C315.877 188.353 297.221 171.193 295.373 150.117C293.525 129.041 309.189 111.87 330.265 111.87C351.341 111.87 370.008 129.03 371.856 150.117C373.704 171.204 358.04 188.353 336.964 188.353Z" fill="#65BFAB"/>
<path d="M338.802 187.429C317.715 187.429 299.059 170.28 297.211 149.193C295.363 128.106 311.027 110.957 332.114 110.957C353.201 110.957 371.846 128.106 373.694 149.193C375.542 170.28 359.889 187.429 338.802 187.429Z" fill="#E75A89"/>
<g opacity="0.7">
<path d="M338.802 187.429C317.715 187.429 299.059 170.28 297.211 149.193C295.363 128.106 311.027 110.957 332.114 110.957C353.201 110.957 371.846 128.106 373.694 149.193C375.542 170.28 359.889 187.429 338.802 187.429Z" fill="white"/>
</g>
<path d="M338.802 187.429C317.715 187.429 299.059 170.28 297.211 149.193C295.363 128.106 311.027 110.957 332.114 110.957C353.201 110.957 371.846 128.106 373.694 149.193C375.542 170.28 359.889 187.429 338.802 187.429ZM332.752 118.305C315.724 118.305 303.052 132.165 304.57 149.193C306.088 166.221 321.125 180.07 338.153 180.07C355.181 180.07 367.853 166.221 366.335 149.193C364.817 132.165 349.802 118.305 332.752 118.305Z" fill="#E75A89"/>
<path d="M337.57 173.415C330.983 173.287 324.67 170.757 319.818 166.3C314.966 161.843 311.91 155.767 311.225 149.215C310.894 146.133 311.222 143.016 312.187 140.07C313.152 137.125 314.732 134.418 316.823 132.13C318.914 129.841 321.467 128.023 324.314 126.797C327.161 125.57 330.235 124.963 333.335 125.015C339.932 125.127 346.259 127.651 351.123 132.109C355.987 136.568 359.05 142.652 359.735 149.215C360.066 152.301 359.737 155.423 358.768 158.373C357.8 161.322 356.215 164.032 354.118 166.321C352.021 168.61 349.461 170.427 346.608 171.65C343.754 172.873 340.673 173.475 337.57 173.415ZM333.973 132.319C331.812 132.281 329.668 132.704 327.683 133.559C325.699 134.414 323.919 135.682 322.462 137.278C321.005 138.874 319.905 140.762 319.234 142.817C318.564 144.871 318.338 147.045 318.573 149.193C319.035 153.769 321.158 158.017 324.542 161.132C327.925 164.248 332.333 166.015 336.932 166.1C339.091 166.137 341.234 165.715 343.218 164.861C345.202 164.006 346.981 162.739 348.438 161.144C349.895 159.549 350.995 157.663 351.666 155.61C352.338 153.557 352.564 151.384 352.332 149.237C351.872 144.659 349.749 140.408 346.366 137.29C342.982 134.172 338.573 132.403 333.973 132.319Z" fill="#E75A89"/>
<path d="M345.016 149.193C345.15 150.411 345.024 151.643 344.645 152.808C344.266 153.974 343.643 155.044 342.818 155.95C341.992 156.855 340.984 157.575 339.858 158.06C338.733 158.545 337.518 158.785 336.293 158.763C333.688 158.717 331.19 157.718 329.272 155.954C327.355 154.191 326.15 151.785 325.887 149.193C325.754 147.975 325.882 146.742 326.262 145.577C326.643 144.412 327.267 143.341 328.093 142.436C328.919 141.531 329.928 140.812 331.054 140.327C332.18 139.842 333.395 139.602 334.621 139.623C337.224 139.672 339.719 140.672 341.634 142.436C343.55 144.199 344.753 146.603 345.016 149.193Z" fill="#E75A89"/>
<path d="M362.29 122.452L360.42 115.181L368.01 107.602L369.869 114.873L362.29 122.452Z" fill="#65BFAB"/>
<path d="M362.289 122.452L369.56 124.322L377.139 116.743L369.868 114.873L362.289 122.452Z" fill="#65BFAB"/>
<path d="M366.257 119.941L364.795 118.479L333.667 149.607L335.129 151.069L366.257 119.941Z" fill="#65BFAB"/>
</svg>
