<svg width="29" height="15" viewBox="0 0 29 15" fill="none" xmlns="http://www.w3.org/2000/svg">
<path opacity="0.5" d="M13.7297 8.59454L7.79376 2.77774C7.75102 2.73575 7.70026 2.70243 7.64437 2.6797C7.58849 2.65696 7.52858 2.64526 7.46807 2.64526C7.40757 2.64526 7.34766 2.65696 7.29178 2.6797C7.23589 2.70243 7.18512 2.73575 7.14239 2.77774L1.20647 8.59454C1.03354 8.76413 0.935547 8.99448 0.935547 9.23473C0.935547 9.7336 1.34914 10.1392 1.85785 10.1392H2.48329V14.2898C2.48329 14.5399 2.68937 14.742 2.94445 14.742H6.54577V11.5764H8.15981V14.742H11.9917C12.2468 14.742 12.4529 14.5399 12.4529 14.2898V10.1392H13.0783C13.3233 10.1392 13.5582 10.0445 13.7311 9.8735C14.09 9.5202 14.09 8.94785 13.7297 8.59454Z" fill="black"/>
<path opacity="0.5" d="M28.7297 8.59454L22.7938 2.77774C22.751 2.73575 22.7003 2.70243 22.6444 2.6797C22.5885 2.65696 22.5286 2.64526 22.4681 2.64526C22.4076 2.64526 22.3477 2.65696 22.2918 2.6797C22.2359 2.70243 22.1851 2.73575 22.1424 2.77774L16.2065 8.59454C16.0335 8.76413 15.9355 8.99448 15.9355 9.23473C15.9355 9.7336 16.3491 10.1392 16.8579 10.1392H17.4833V14.2898C17.4833 14.5399 17.6894 14.742 17.9444 14.742H21.5458V11.5764H23.1598V14.742H26.9917C27.2468 14.742 27.4529 14.5399 27.4529 14.2898V10.1392H28.0783C28.3233 10.1392 28.5582 10.0445 28.7311 9.8735C29.09 9.5202 29.09 8.94785 28.7297 8.59454Z" fill="black"/>
<path d="M21.9056 7.36497L14.8704 0.384803C14.8198 0.334409 14.7596 0.294428 14.6934 0.26715C14.6272 0.239871 14.5561 0.22583 14.4844 0.22583C14.4127 0.22583 14.3417 0.239871 14.2755 0.26715C14.2093 0.294428 14.1491 0.334409 14.0984 0.384803L7.06329 7.36497C6.85833 7.56847 6.74219 7.84489 6.74219 8.13319C6.74219 8.73183 7.23238 9.21854 7.83529 9.21854H8.57655V14.1993C8.57655 14.4995 8.82079 14.742 9.12311 14.742H13.3913V10.9432H15.3043V14.742H19.8458C20.1481 14.742 20.3923 14.4995 20.3923 14.1993V9.21854H21.1336C21.424 9.21854 21.7023 9.10492 21.9073 8.89972C22.3326 8.47575 22.3326 7.78893 21.9056 7.36497Z" fill="black"/>
</svg>
