<svg width="28" height="26" viewBox="0 0 28 26" fill="none" xmlns="http://www.w3.org/2000/svg">
<path d="M26.7305 12.7949L14.6631 0.736304C14.5762 0.649246 14.473 0.580177 14.3594 0.533052C14.2458 0.485927 14.124 0.46167 14.001 0.46167C13.878 0.46167 13.7562 0.485927 13.6426 0.533052C13.529 0.580177 13.4258 0.649246 13.3389 0.736304L1.27148 12.7949C0.919922 13.1465 0.720703 13.624 0.720703 14.122C0.720703 15.1562 1.56152 15.997 2.5957 15.997H3.86719V24.6015C3.86719 25.1201 4.28613 25.539 4.80469 25.539H12.126V18.9765H15.4072V25.539H23.1973C23.7158 25.539 24.1348 25.1201 24.1348 24.6015V15.997H25.4062C25.9043 15.997 26.3818 15.8008 26.7334 15.4463C27.4629 14.7138 27.4629 13.5273 26.7305 12.7949Z" fill="black"/>
</svg>
