<svg width="34" height="34" viewBox="0 0 34 34" fill="none" xmlns="http://www.w3.org/2000/svg">
<circle cx="17" cy="17" r="17" fill="black"/>
<path d="M15.998 21L20.998 17L15.998 13V16H6.99805V18H15.998V21Z" fill="white"/>
<path d="M17.9988 7.99906C16.8163 7.99578 15.6449 8.22717 14.5525 8.67982C13.4601 9.13247 12.4684 9.79739 11.6348 10.6361L13.0488 12.0501C14.3708 10.7281 16.1288 9.99906 17.9988 9.99906C19.8688 9.99906 21.6268 10.7281 22.9488 12.0501C24.2708 13.3721 24.9998 15.1301 24.9998 17.0001C24.9998 18.8701 24.2708 20.6281 22.9488 21.9501C21.6268 23.2721 19.8688 24.0011 17.9988 24.0011C16.1288 24.0011 14.3708 23.2721 13.0488 21.9501L11.6348 23.3641C13.3338 25.0641 15.5938 26.0011 17.9988 26.0011C20.4038 26.0011 22.6638 25.0641 24.3628 23.3641C26.0628 21.6651 26.9998 19.4051 26.9998 17.0001C26.9998 14.5951 26.0628 12.3351 24.3628 10.6361C23.5292 9.79739 22.5374 9.13247 21.445 8.67982C20.3526 8.22717 19.1812 7.99578 17.9988 7.99906V7.99906Z" fill="white"/>
</svg>
