<svg width="32" height="32" viewBox="0 0 32 32" fill="none" xmlns="http://www.w3.org/2000/svg">
<path d="M17.3333 26.6873C17.6869 26.6873 18.0261 26.8278 18.2761 27.0779C18.5262 27.3279 18.6666 27.6671 18.6666 28.0207C18.6666 28.3743 18.5262 28.7134 18.2761 28.9635C18.0261 29.2135 17.6869 29.354 17.3333 29.354C16.9797 29.354 16.6405 29.2135 16.3905 28.9635C16.1404 28.7134 16 28.3743 16 28.0207C16 27.6671 16.1404 27.3279 16.3905 27.0779C16.6405 26.8278 16.9797 26.6873 17.3333 26.6873V26.6873ZM12.6666 25.354C13.0202 25.354 13.3594 25.4945 13.6094 25.7445C13.8595 25.9946 14 26.3337 14 26.6873C14 27.041 13.8595 27.3801 13.6094 27.6302C13.3594 27.8802 13.0202 28.0207 12.6666 28.0207C12.313 28.0207 11.9739 27.8802 11.7238 27.6302C11.4738 27.3801 11.3333 27.041 11.3333 26.6873C11.3333 26.3337 11.4738 25.9946 11.7238 25.7445C11.9739 25.4945 12.313 25.354 12.6666 25.354V25.354ZM22 25.354C22.3536 25.354 22.6927 25.4945 22.9428 25.7445C23.1928 25.9946 23.3333 26.3337 23.3333 26.6873C23.3333 27.041 23.1928 27.3801 22.9428 27.6302C22.6927 27.8802 22.3536 28.0207 22 28.0207C21.6463 28.0207 21.3072 27.8802 21.0572 27.6302C20.8071 27.3801 20.6666 27.041 20.6666 26.6873C20.6666 26.3337 20.8071 25.9946 21.0572 25.7445C21.3072 25.4945 21.6463 25.354 22 25.354ZM17.3326 8.00668C21.5573 8.00668 23.954 10.8027 24.3026 14.18H24.4093C27.128 14.18 29.332 16.378 29.332 19.09C29.332 21.802 27.128 24 24.4093 24H10.256C7.53729 24 5.33329 21.802 5.33329 19.09C5.33329 16.378 7.53729 14.18 10.256 14.18H10.3626C10.7133 10.7807 13.108 8.00668 17.3326 8.00668V8.00668ZM17.3326 9.67001C14.492 9.67001 12.016 11.9687 12.016 15.1433C12.016 15.6467 11.5786 16.0413 11.0773 16.0413H10.1306C8.40129 16.0413 6.99929 17.4507 6.99929 19.1887C6.99929 20.9273 8.40129 22.3367 10.1306 22.3367H24.5346C26.264 22.3367 27.666 20.9273 27.666 19.1887C27.666 17.4507 26.264 16.042 24.5346 16.042H23.588C23.0866 16.042 22.6493 15.6467 22.6493 15.1433C22.6493 11.928 20.1733 9.67001 17.3326 9.67001V9.67001ZM5.80596 13.5353C5.8844 13.7249 5.88979 13.9368 5.82108 14.1302C5.75237 14.3235 5.61445 14.4845 5.43396 14.582L5.35729 14.6187L3.81596 15.26C3.61989 15.3398 3.40074 15.3415 3.20342 15.2649C3.00609 15.1883 2.84552 15.0392 2.75459 14.8481C2.66366 14.6569 2.64926 14.4382 2.71434 14.2368C2.77942 14.0354 2.91905 13.8665 3.10463 13.7647L3.18129 13.728L4.72263 13.0867C4.92579 13.0026 5.15403 13.0026 5.35718 13.0867C5.56033 13.1709 5.72175 13.3322 5.80596 13.5353ZM14.4726 7.10868L14.4313 7.12135C13.8153 7.32268 13.242 7.58935 12.718 7.91468C12.002 7.61173 11.2082 7.54418 10.4514 7.72181C9.69448 7.89944 9.01366 8.31305 8.5072 8.9029C8.00075 9.49274 7.69489 10.2283 7.63379 11.0033C7.57269 11.7784 7.75952 12.5528 8.16729 13.2147C7.66563 13.394 7.18924 13.6373 6.74996 13.9387C6.13658 12.8882 5.90661 11.6575 6.09928 10.4564C6.29195 9.25527 6.89532 8.15821 7.8065 7.35228C8.71767 6.54635 9.8802 6.08147 11.0958 6.03693C12.3115 5.99239 13.5049 6.37093 14.4726 7.10801V7.10868ZM3.71996 7.22801L3.80463 7.25868L5.35129 7.91801C5.77063 8.09535 5.97196 8.58135 5.80063 9.00335C5.64063 9.39801 5.21196 9.59668 4.81396 9.47735L4.72996 9.44735L3.18396 8.78735C2.98196 8.70117 2.82175 8.53931 2.73764 8.33645C2.65352 8.13358 2.6522 7.90584 2.73396 7.70201C2.89396 7.30801 3.32263 7.10868 3.72063 7.22801H3.71996ZM8.63263 3.11202L8.66929 3.18935L9.30929 4.72668C9.39125 4.92411 9.39421 5.14548 9.31755 5.34502C9.24089 5.54457 9.09049 5.70703 8.89743 5.7988C8.70437 5.89058 8.48343 5.90466 8.28028 5.83813C8.07714 5.7716 7.90733 5.62955 7.80596 5.44135L7.76929 5.36468L7.12929 3.82735C7.04637 3.62977 7.04274 3.40785 7.11915 3.20766C7.19556 3.00748 7.34615 2.84442 7.53963 2.75235C7.73312 2.66029 7.95463 2.64629 8.15817 2.71326C8.3617 2.78024 8.53162 2.92304 8.63263 3.11202V3.11202ZM14.6646 2.73868C15.066 2.90535 15.2706 3.34535 15.1513 3.75268L15.1206 3.83935L14.4593 5.35668C14.3755 5.55384 14.2198 5.7117 14.0238 5.79815C13.8278 5.8846 13.6062 5.89317 13.4042 5.8221C13.2021 5.75103 13.0346 5.60566 12.9359 5.41556C12.8372 5.22545 12.8145 5.00488 12.8726 4.79868L12.9033 4.71201L13.564 3.19468C13.6495 2.98829 13.8135 2.82432 14.0199 2.73881C14.2263 2.6533 14.4582 2.65326 14.6646 2.73868V2.73868Z" fill="#747474"/>
</svg>
